<svg width="1116" height="718" viewBox="0 0 1116 718" fill="none" xmlns="http://www.w3.org/2000/svg">
<rect width="1116" height="718" rx="24" fill="#101010"/>
<path d="M247.978 290.685L225.597 329.16C223.856 332.154 221.362 334.639 218.364 336.365C215.367 338.092 211.971 339 208.514 339H84.914C79.1899 339 75.6234 332.773 78.5075 327.815L100.889 289.34C102.63 286.346 105.124 283.861 108.122 282.135C111.119 280.408 114.516 279.5 117.972 279.5H241.572C247.296 279.5 250.863 285.727 247.978 290.685ZM117.972 269.583H219.333V254.708C219.333 246.493 212.692 239.833 204.5 239.833H155.056L135.278 220H85.8333C77.641 220 71 226.66 71 234.875V321.04L92.3467 284.343C97.6425 275.239 107.462 269.583 117.972 269.583Z" fill="#4E993B"/>
<path d="M1083.98 290.685L1061.6 329.16C1059.86 332.154 1057.36 334.639 1054.36 336.365C1051.37 338.092 1047.97 339 1044.51 339H920.914C915.19 339 911.623 332.773 914.508 327.815L936.889 289.34C938.63 286.346 941.124 283.861 944.122 282.135C947.119 280.408 950.516 279.5 953.972 279.5H1077.57C1083.3 279.5 1086.86 285.727 1083.98 290.685ZM953.972 269.583H1055.33V254.708C1055.33 246.493 1048.69 239.833 1040.5 239.833H991.056L971.278 220H921.833C913.641 220 907 226.66 907 234.875V321.04L928.347 284.343C933.643 275.239 943.462 269.583 953.972 269.583Z" fill="#99683B"/>
<path d="M129.479 375.348C129.376 374.317 128.938 373.516 128.162 372.945C127.386 372.374 126.334 372.088 125.004 372.088C124.101 372.088 123.338 372.216 122.716 372.472C122.094 372.719 121.616 373.064 121.284 373.507C120.96 373.95 120.798 374.453 120.798 375.016C120.781 375.484 120.879 375.893 121.092 376.243C121.314 376.592 121.616 376.895 122 377.151C122.384 377.398 122.827 377.615 123.33 377.803C123.832 377.982 124.369 378.135 124.94 378.263L127.293 378.825C128.435 379.081 129.483 379.422 130.438 379.848C131.392 380.274 132.219 380.798 132.918 381.42C133.616 382.043 134.158 382.776 134.541 383.619C134.933 384.463 135.134 385.43 135.142 386.521C135.134 388.124 134.724 389.513 133.915 390.689C133.114 391.857 131.955 392.764 130.438 393.412C128.929 394.051 127.109 394.371 124.979 394.371C122.865 394.371 121.024 394.047 119.456 393.399C117.896 392.751 116.678 391.793 115.8 390.523C114.93 389.244 114.474 387.663 114.432 385.78H119.788C119.848 386.658 120.099 387.391 120.543 387.979C120.994 388.558 121.595 388.997 122.345 389.295C123.104 389.585 123.96 389.73 124.915 389.73C125.852 389.73 126.666 389.594 127.357 389.321C128.055 389.048 128.597 388.669 128.98 388.183C129.364 387.697 129.555 387.139 129.555 386.509C129.555 385.92 129.381 385.426 129.031 385.026C128.69 384.625 128.188 384.284 127.523 384.003C126.866 383.722 126.061 383.466 125.107 383.236L122.256 382.52C120.048 381.983 118.305 381.143 117.027 380.001C115.749 378.859 115.114 377.321 115.122 375.386C115.114 373.801 115.536 372.416 116.388 371.232C117.249 370.047 118.429 369.122 119.929 368.457C121.429 367.793 123.134 367.46 125.043 367.46C126.986 367.46 128.682 367.793 130.131 368.457C131.588 369.122 132.722 370.047 133.531 371.232C134.341 372.416 134.759 373.788 134.784 375.348H129.479ZM138.865 394V367.818H149.195C151.172 367.818 152.86 368.172 154.257 368.879C155.664 369.578 156.733 370.571 157.466 371.858C158.208 373.136 158.578 374.641 158.578 376.371C158.578 378.109 158.203 379.605 157.453 380.858C156.703 382.102 155.617 383.057 154.194 383.722C152.779 384.386 151.066 384.719 149.054 384.719H142.138V380.27H148.159C149.216 380.27 150.094 380.125 150.793 379.835C151.492 379.545 152.012 379.111 152.353 378.531C152.702 377.952 152.877 377.232 152.877 376.371C152.877 375.501 152.702 374.768 152.353 374.172C152.012 373.575 151.488 373.124 150.78 372.817C150.081 372.501 149.199 372.344 148.134 372.344H144.401V394H138.865ZM153.005 382.085L159.512 394H153.401L147.034 382.085H153.005ZM185.591 376.984H179.992C179.89 376.26 179.681 375.616 179.365 375.054C179.05 374.483 178.645 373.997 178.151 373.597C177.657 373.196 177.086 372.889 176.438 372.676C175.799 372.463 175.104 372.357 174.354 372.357C172.999 372.357 171.819 372.693 170.813 373.366C169.807 374.031 169.027 375.003 168.473 376.281C167.919 377.551 167.642 379.094 167.642 380.909C167.642 382.776 167.919 384.344 168.473 385.614C169.036 386.884 169.82 387.842 170.826 388.49C171.831 389.138 172.995 389.462 174.316 389.462C175.057 389.462 175.743 389.364 176.374 389.168C177.013 388.972 177.58 388.686 178.074 388.311C178.569 387.928 178.978 387.463 179.301 386.918C179.634 386.372 179.864 385.75 179.992 385.051L185.591 385.077C185.446 386.278 185.084 387.438 184.505 388.554C183.934 389.662 183.162 390.655 182.191 391.533C181.228 392.402 180.077 393.092 178.739 393.604C177.409 394.107 175.905 394.358 174.226 394.358C171.891 394.358 169.803 393.83 167.962 392.773C166.13 391.716 164.681 390.186 163.615 388.183C162.559 386.18 162.03 383.756 162.03 380.909C162.03 378.054 162.567 375.625 163.641 373.622C164.715 371.619 166.172 370.094 168.013 369.045C169.854 367.989 171.925 367.46 174.226 367.46C175.743 367.46 177.15 367.673 178.445 368.099C179.749 368.526 180.904 369.148 181.909 369.966C182.915 370.776 183.733 371.768 184.364 372.945C185.003 374.121 185.412 375.467 185.591 376.984Z" fill="white"/>
<path d="M946.818 390.341C945.053 390.341 943.527 389.966 942.239 389.216C940.958 388.458 939.97 387.405 939.273 386.057C938.576 384.701 938.227 383.129 938.227 381.341C938.227 379.538 938.576 377.962 939.273 376.614C939.97 375.258 940.958 374.205 942.239 373.455C943.527 372.697 945.053 372.318 946.818 372.318C948.583 372.318 950.106 372.697 951.386 373.455C952.674 374.205 953.667 375.258 954.364 376.614C955.061 377.962 955.409 379.538 955.409 381.341C955.409 383.129 955.061 384.701 954.364 386.057C953.667 387.405 952.674 388.458 951.386 389.216C950.106 389.966 948.583 390.341 946.818 390.341ZM946.841 386.591C947.644 386.591 948.314 386.364 948.852 385.909C949.39 385.447 949.795 384.818 950.068 384.023C950.348 383.227 950.489 382.322 950.489 381.307C950.489 380.292 950.348 379.386 950.068 378.591C949.795 377.795 949.39 377.167 948.852 376.705C948.314 376.242 947.644 376.011 946.841 376.011C946.03 376.011 945.348 376.242 944.795 376.705C944.25 377.167 943.837 377.795 943.557 378.591C943.284 379.386 943.148 380.292 943.148 381.307C943.148 382.322 943.284 383.227 943.557 384.023C943.837 384.818 944.25 385.447 944.795 385.909C945.348 386.364 946.03 386.591 946.841 386.591ZM969.75 382.568V372.545H974.591V390H969.943V386.83H969.761C969.367 387.852 968.712 388.674 967.795 389.295C966.886 389.917 965.777 390.227 964.466 390.227C963.299 390.227 962.273 389.962 961.386 389.432C960.5 388.902 959.807 388.148 959.307 387.17C958.814 386.193 958.564 385.023 958.557 383.659V372.545H963.398V382.795C963.405 383.826 963.682 384.64 964.227 385.239C964.773 385.837 965.504 386.136 966.42 386.136C967.004 386.136 967.549 386.004 968.057 385.739C968.564 385.466 968.973 385.064 969.284 384.534C969.602 384.004 969.758 383.348 969.75 382.568ZM987.747 372.545V376.182H977.236V372.545H987.747ZM979.622 368.364H984.463V384.636C984.463 385.083 984.531 385.432 984.668 385.682C984.804 385.924 984.993 386.095 985.236 386.193C985.486 386.292 985.774 386.341 986.099 386.341C986.327 386.341 986.554 386.322 986.781 386.284C987.009 386.239 987.183 386.205 987.304 386.182L988.065 389.784C987.823 389.86 987.482 389.947 987.043 390.045C986.603 390.152 986.069 390.216 985.44 390.239C984.274 390.284 983.251 390.129 982.372 389.773C981.501 389.417 980.823 388.864 980.338 388.114C979.853 387.364 979.615 386.417 979.622 385.273V368.364ZM999.616 390H991.366V366.727H999.685C1002.03 366.727 1004.04 367.193 1005.73 368.125C1007.42 369.049 1008.72 370.379 1009.63 372.114C1010.54 373.848 1011 375.924 1011 378.341C1011 380.765 1010.54 382.848 1009.63 384.591C1008.72 386.333 1007.41 387.67 1005.71 388.602C1004.01 389.534 1001.98 390 999.616 390ZM996.287 385.784H999.412C1000.87 385.784 1002.09 385.527 1003.08 385.011C1004.08 384.489 1004.83 383.682 1005.33 382.591C1005.84 381.492 1006.09 380.076 1006.09 378.341C1006.09 376.621 1005.84 375.216 1005.33 374.125C1004.83 373.034 1004.09 372.231 1003.09 371.716C1002.1 371.201 1000.88 370.943 999.423 370.943H996.287V385.784ZM1014.56 390V372.545H1019.4V390H1014.56ZM1016.99 370.295C1016.27 370.295 1015.65 370.057 1015.14 369.58C1014.63 369.095 1014.38 368.515 1014.38 367.841C1014.38 367.174 1014.63 366.602 1015.14 366.125C1015.65 365.64 1016.27 365.398 1016.99 365.398C1017.71 365.398 1018.32 365.64 1018.83 366.125C1019.34 366.602 1019.6 367.174 1019.6 367.841C1019.6 368.515 1019.34 369.095 1018.83 369.58C1018.32 370.057 1017.71 370.295 1016.99 370.295ZM1023.28 390V372.545H1027.97V375.591H1028.15C1028.47 374.508 1029 373.689 1029.75 373.136C1030.5 372.576 1031.37 372.295 1032.34 372.295C1032.59 372.295 1032.85 372.311 1033.13 372.341C1033.41 372.371 1033.65 372.413 1033.87 372.466V376.761C1033.64 376.693 1033.32 376.633 1032.92 376.58C1032.52 376.527 1032.15 376.5 1031.82 376.5C1031.11 376.5 1030.47 376.655 1029.91 376.966C1029.36 377.269 1028.92 377.693 1028.59 378.239C1028.28 378.784 1028.12 379.413 1028.12 380.125V390H1023.28Z" fill="white"/>
<path d="M285.699 178.149L285.565 180.645L285.699 178.149ZM352.445 219.912C353.8 220.18 355.115 219.299 355.383 217.945L359.75 195.873C360.018 194.518 359.138 193.203 357.783 192.935C356.429 192.667 355.114 193.548 354.846 194.902L350.963 214.522L331.344 210.639C329.989 210.371 328.674 211.252 328.406 212.607C328.138 213.961 329.019 215.276 330.373 215.544L352.445 219.912ZM213 209.242C214.852 210.922 214.851 210.922 214.851 210.923C214.851 210.923 214.851 210.923 214.851 210.923C214.851 210.923 214.851 210.922 214.852 210.921C214.854 210.919 214.858 210.914 214.864 210.908C214.875 210.896 214.894 210.876 214.92 210.848C214.972 210.792 215.052 210.706 215.161 210.591C215.379 210.363 215.71 210.021 216.149 209.583C217.027 208.707 218.339 207.448 220.048 205.938C223.468 202.916 228.468 198.904 234.765 194.962C247.379 187.065 265.042 179.546 285.565 180.645L285.832 175.652C263.926 174.479 245.239 182.506 232.112 190.724C225.537 194.84 220.318 199.027 216.737 202.191C214.946 203.773 213.561 205.103 212.618 206.042C212.147 206.513 211.786 206.885 211.539 207.144C211.416 207.274 211.322 207.375 211.256 207.445C211.224 207.48 211.198 207.508 211.18 207.527C211.171 207.537 211.164 207.545 211.159 207.551C211.156 207.554 211.154 207.556 211.152 207.558C211.151 207.559 211.15 207.56 211.15 207.561C211.149 207.561 211.148 207.562 213 209.242ZM285.565 180.645C306.064 181.743 322.375 191.244 333.63 200.58C339.249 205.242 343.574 209.835 346.489 213.258C347.946 214.968 349.047 216.382 349.78 217.361C350.146 217.851 350.42 218.231 350.6 218.485C350.689 218.612 350.755 218.708 350.798 218.769C350.819 218.8 350.834 218.822 350.843 218.836C350.848 218.843 350.851 218.847 350.853 218.85C350.854 218.851 350.854 218.852 350.854 218.852C350.854 218.852 350.854 218.851 350.854 218.851C350.854 218.851 350.853 218.85 352.93 217.459C355.008 216.068 355.007 216.067 355.006 216.066C355.006 216.066 355.005 216.065 355.005 216.064C355.003 216.061 355.001 216.059 354.999 216.055C354.995 216.049 354.989 216.04 354.981 216.029C354.966 216.007 354.945 215.976 354.918 215.937C354.864 215.858 354.786 215.745 354.684 215.6C354.479 215.311 354.178 214.893 353.784 214.366C352.994 213.311 351.827 211.813 350.295 210.015C347.234 206.422 342.707 201.614 336.822 196.732C325.068 186.981 307.763 176.827 285.832 175.652L285.565 180.645Z" fill="white"/>
<path d="M515.916 461.968L515.296 464.39L515.916 461.968ZM596.712 452.043C598.035 452.436 598.79 453.827 598.396 455.151L591.989 476.719C591.596 478.043 590.204 478.797 588.881 478.404C587.557 478.011 586.803 476.619 587.196 475.296L592.892 456.124L573.72 450.428C572.396 450.035 571.642 448.643 572.035 447.32C572.428 445.996 573.82 445.242 575.144 445.635L596.712 452.043ZM447.576 417C449.625 415.568 449.625 415.567 449.625 415.567C449.625 415.567 449.624 415.566 449.624 415.566C449.624 415.566 449.625 415.567 449.626 415.568C449.627 415.57 449.63 415.574 449.634 415.58C449.643 415.592 449.657 415.612 449.677 415.64C449.717 415.695 449.779 415.782 449.864 415.897C450.034 416.129 450.294 416.476 450.644 416.927C451.344 417.83 452.403 419.144 453.817 420.764C456.645 424.003 460.887 428.456 466.514 433.267C477.774 442.894 494.525 453.91 516.536 459.546L515.296 464.39C492.356 458.516 474.938 447.047 463.265 437.068C457.426 432.075 453.012 427.445 450.05 424.052C448.568 422.354 447.449 420.965 446.694 419.993C446.317 419.506 446.031 419.124 445.836 418.86C445.739 418.727 445.664 418.625 445.613 418.553C445.587 418.517 445.567 418.489 445.553 418.469C445.546 418.459 445.54 418.45 445.536 418.444C445.534 418.441 445.532 418.439 445.531 418.437C445.53 418.436 445.529 418.435 445.529 418.434C445.528 418.433 445.527 418.432 447.576 417ZM516.536 459.546C538.533 465.179 558.136 463.339 572.253 460.084C579.309 458.457 584.981 456.479 588.876 454.914C590.823 454.132 592.324 453.454 593.33 452.977C593.833 452.738 594.211 452.549 594.46 452.422C594.584 452.359 594.676 452.311 594.734 452.281C594.764 452.265 594.784 452.254 594.797 452.247C594.803 452.244 594.807 452.242 594.809 452.241C594.81 452.24 594.811 452.24 594.811 452.24C594.811 452.24 594.81 452.24 594.81 452.24C594.81 452.241 594.809 452.241 596 454.439C597.191 456.637 597.19 456.638 597.189 456.638C597.189 456.639 597.187 456.639 597.186 456.64C597.184 456.641 597.181 456.642 597.178 456.644C597.171 456.648 597.163 456.652 597.152 456.658C597.13 456.67 597.1 456.686 597.061 456.706C596.984 456.747 596.873 456.804 596.729 456.878C596.441 457.024 596.021 457.234 595.475 457.493C594.384 458.011 592.789 458.731 590.74 459.554C586.643 461.2 580.722 463.262 573.376 464.956C558.689 468.343 538.25 470.268 515.296 464.39L516.536 459.546Z" fill="white"/>
<path d="M806.379 204.153L805.625 201.769L806.379 204.153ZM886.489 211.04C887.802 210.612 888.518 209.2 888.09 207.888L881.105 186.499C880.677 185.187 879.265 184.47 877.953 184.899C876.64 185.327 875.924 186.739 876.352 188.051L882.561 207.063L863.549 213.272C862.236 213.7 861.52 215.112 861.948 216.424C862.377 217.737 863.788 218.453 865.101 218.025L886.489 211.04ZM742.317 253.392C744.478 254.649 744.478 254.649 744.478 254.65C744.478 254.65 744.477 254.65 744.477 254.65C744.478 254.65 744.478 254.65 744.478 254.649C744.48 254.646 744.482 254.642 744.486 254.636C744.494 254.623 744.506 254.602 744.524 254.572C744.559 254.513 744.614 254.421 744.69 254.298C744.841 254.053 745.072 253.683 745.384 253.203C746.009 252.243 746.958 250.842 748.233 249.113C750.786 245.652 754.643 240.882 759.835 235.686C770.226 225.29 785.909 213.245 807.132 206.537L805.625 201.769C783.433 208.784 767.084 221.36 756.299 232.152C750.902 237.551 746.885 242.517 744.209 246.145C742.871 247.959 741.867 249.44 741.193 250.476C740.857 250.994 740.602 251.401 740.429 251.682C740.343 251.822 740.277 251.932 740.231 252.008C740.209 252.046 740.191 252.076 740.178 252.097C740.172 252.108 740.167 252.117 740.163 252.123C740.161 252.126 740.16 252.129 740.158 252.131C740.158 252.132 740.157 252.133 740.157 252.134C740.156 252.135 740.156 252.136 742.317 253.392ZM807.132 206.537C828.341 199.833 847.732 200.93 861.843 203.714C868.896 205.106 874.614 206.917 878.556 208.374C880.526 209.102 882.051 209.741 883.074 210.193C883.586 210.42 883.972 210.599 884.225 210.72C884.352 210.78 884.446 210.826 884.505 210.855C884.535 210.87 884.557 210.88 884.569 210.887C884.576 210.89 884.58 210.892 884.582 210.893C884.583 210.894 884.583 210.894 884.583 210.894C884.583 210.894 884.583 210.894 884.583 210.894C884.582 210.893 884.582 210.893 885.713 208.664C886.845 206.435 886.844 206.434 886.843 206.433C886.842 206.433 886.841 206.433 886.84 206.432C886.838 206.431 886.835 206.429 886.831 206.428C886.825 206.424 886.816 206.42 886.805 206.414C886.783 206.403 886.752 206.388 886.712 206.369C886.634 206.33 886.52 206.275 886.373 206.205C886.08 206.065 885.652 205.866 885.096 205.621C883.986 205.129 882.365 204.451 880.289 203.684C876.14 202.151 870.165 200.26 862.811 198.809C848.109 195.908 827.833 194.749 805.625 201.769L807.132 206.537Z" fill="white"/>
<path d="M403.999 491V475.727H406.872V478.153H407.031C407.31 477.331 407.8 476.685 408.503 476.214C409.212 475.737 410.014 475.499 410.909 475.499C411.095 475.499 411.313 475.505 411.565 475.518C411.824 475.532 412.026 475.548 412.172 475.568V478.412C412.053 478.379 411.84 478.342 411.536 478.303C411.231 478.256 410.926 478.233 410.621 478.233C409.918 478.233 409.292 478.382 408.741 478.68C408.198 478.972 407.767 479.38 407.449 479.903C407.131 480.42 406.972 481.01 406.972 481.673V491H403.999ZM420.78 491.308C419.275 491.308 417.98 490.987 416.892 490.344C415.812 489.694 414.977 488.783 414.387 487.609C413.803 486.429 413.512 485.047 413.512 483.463C413.512 481.899 413.803 480.52 414.387 479.327C414.977 478.134 415.799 477.202 416.853 476.533C417.913 475.863 419.153 475.528 420.571 475.528C421.433 475.528 422.268 475.671 423.077 475.956C423.886 476.241 424.612 476.688 425.255 477.298C425.898 477.908 426.405 478.7 426.776 479.675C427.147 480.643 427.333 481.819 427.333 483.205V484.259H415.192V482.031H424.419C424.419 481.249 424.26 480.556 423.942 479.953C423.624 479.343 423.176 478.863 422.6 478.511C422.03 478.16 421.36 477.984 420.591 477.984C419.756 477.984 419.027 478.19 418.404 478.601C417.787 479.005 417.31 479.536 416.972 480.192C416.641 480.841 416.475 481.547 416.475 482.31V484.05C416.475 485.071 416.654 485.939 417.012 486.655C417.376 487.371 417.883 487.918 418.533 488.295C419.183 488.667 419.942 488.852 420.81 488.852C421.373 488.852 421.887 488.773 422.351 488.614C422.815 488.448 423.216 488.203 423.554 487.878C423.892 487.553 424.151 487.152 424.33 486.675L427.144 487.182C426.918 488.01 426.514 488.736 425.931 489.359C425.354 489.976 424.628 490.456 423.753 490.801C422.885 491.139 421.894 491.308 420.78 491.308ZM442.076 479.456L439.381 479.933C439.269 479.589 439.09 479.26 438.844 478.949C438.606 478.637 438.281 478.382 437.87 478.183C437.459 477.984 436.945 477.885 436.329 477.885C435.487 477.885 434.784 478.074 434.221 478.452C433.657 478.823 433.376 479.304 433.376 479.893C433.376 480.404 433.565 480.815 433.942 481.126C434.32 481.438 434.93 481.693 435.772 481.892L438.198 482.449C439.603 482.774 440.651 483.274 441.34 483.95C442.03 484.626 442.374 485.505 442.374 486.585C442.374 487.5 442.109 488.315 441.579 489.031C441.055 489.741 440.323 490.297 439.381 490.702C438.447 491.106 437.363 491.308 436.13 491.308C434.42 491.308 433.024 490.944 431.944 490.214C430.863 489.479 430.201 488.435 429.955 487.082L432.829 486.645C433.008 487.394 433.376 487.961 433.933 488.345C434.489 488.723 435.215 488.912 436.11 488.912C437.085 488.912 437.863 488.71 438.447 488.305C439.03 487.894 439.322 487.394 439.322 486.804C439.322 486.327 439.143 485.926 438.785 485.601C438.433 485.276 437.893 485.031 437.164 484.865L434.579 484.298C433.154 483.973 432.1 483.456 431.417 482.747C430.741 482.038 430.403 481.14 430.403 480.053C430.403 479.151 430.655 478.362 431.158 477.686C431.662 477.01 432.358 476.483 433.246 476.105C434.135 475.721 435.152 475.528 436.299 475.528C437.95 475.528 439.249 475.886 440.197 476.602C441.145 477.312 441.771 478.263 442.076 479.456ZM452.076 491.308C450.645 491.308 449.395 490.98 448.328 490.324C447.261 489.668 446.432 488.75 445.842 487.57C445.252 486.39 444.957 485.011 444.957 483.433C444.957 481.849 445.252 480.464 445.842 479.277C446.432 478.09 447.261 477.169 448.328 476.513C449.395 475.857 450.645 475.528 452.076 475.528C453.508 475.528 454.758 475.857 455.825 476.513C456.892 477.169 457.721 478.09 458.311 479.277C458.901 480.464 459.196 481.849 459.196 483.433C459.196 485.011 458.901 486.39 458.311 487.57C457.721 488.75 456.892 489.668 455.825 490.324C454.758 490.98 453.508 491.308 452.076 491.308ZM452.086 488.812C453.014 488.812 453.783 488.567 454.393 488.077C455.003 487.586 455.454 486.933 455.745 486.118C456.044 485.303 456.193 484.404 456.193 483.423C456.193 482.449 456.044 481.554 455.745 480.739C455.454 479.917 455.003 479.257 454.393 478.76C453.783 478.263 453.014 478.014 452.086 478.014C451.152 478.014 450.376 478.263 449.76 478.76C449.15 479.257 448.696 479.917 448.397 480.739C448.106 481.554 447.96 482.449 447.96 483.423C447.96 484.404 448.106 485.303 448.397 486.118C448.696 486.933 449.15 487.586 449.76 488.077C450.376 488.567 451.152 488.812 452.086 488.812ZM465.487 470.636V491H462.514V470.636H465.487ZM482.552 475.727L477.014 491H473.832L468.284 475.727H471.475L475.343 487.48H475.502L479.36 475.727H482.552ZM491.409 491.308C489.904 491.308 488.608 490.987 487.521 490.344C486.441 489.694 485.606 488.783 485.016 487.609C484.432 486.429 484.141 485.047 484.141 483.463C484.141 481.899 484.432 480.52 485.016 479.327C485.606 478.134 486.428 477.202 487.482 476.533C488.542 475.863 489.782 475.528 491.2 475.528C492.062 475.528 492.897 475.671 493.706 475.956C494.515 476.241 495.241 476.688 495.884 477.298C496.527 477.908 497.034 478.7 497.405 479.675C497.776 480.643 497.962 481.819 497.962 483.205V484.259H485.821V482.031H495.048C495.048 481.249 494.889 480.556 494.571 479.953C494.253 479.343 493.805 478.863 493.229 478.511C492.659 478.16 491.989 477.984 491.22 477.984C490.385 477.984 489.656 478.19 489.033 478.601C488.416 479.005 487.939 479.536 487.601 480.192C487.269 480.841 487.104 481.547 487.104 482.31V484.05C487.104 485.071 487.283 485.939 487.641 486.655C488.005 487.371 488.512 487.918 489.162 488.295C489.812 488.667 490.571 488.852 491.439 488.852C492.002 488.852 492.516 488.773 492.98 488.614C493.444 488.448 493.845 488.203 494.183 487.878C494.521 487.553 494.78 487.152 494.959 486.675L497.773 487.182C497.547 488.01 497.143 488.736 496.56 489.359C495.983 489.976 495.257 490.456 494.382 490.801C493.514 491.139 492.523 491.308 491.409 491.308Z" fill="white"/>
<path d="M415.81 276.5V234H353.48C349.335 234 346 237.344 346 241.5V386.5C346 390.656 349.335 394 353.48 394H458.195C462.34 394 465.675 390.656 465.675 386.5V284H423.29C419.176 284 415.81 280.625 415.81 276.5ZM465.675 272.094V274H425.783V234H427.684C429.679 234 431.58 234.781 432.982 236.187L463.493 266.812C464.896 268.219 465.675 270.125 465.675 272.094Z" fill="#3B6C99"/>
<path d="M383.716 332L388.08 305.818H395.341L390.977 332H383.716ZM392.46 302.409C391.381 302.409 390.489 302.051 389.784 301.335C389.091 300.608 388.807 299.744 388.932 298.744C389.057 297.722 389.545 296.858 390.398 296.153C391.25 295.437 392.216 295.08 393.295 295.08C394.375 295.08 395.256 295.437 395.938 296.153C396.619 296.858 396.903 297.722 396.79 298.744C396.676 299.744 396.193 300.608 395.341 301.335C394.5 302.051 393.54 302.409 392.46 302.409ZM415.254 305.818L414.351 311.273H398.192L399.095 305.818H415.254ZM398.413 332L403.101 303.926C403.408 302.028 404.033 300.455 404.976 299.205C405.93 297.955 407.107 297.017 408.504 296.392C409.913 295.767 411.436 295.455 413.072 295.455C414.186 295.455 415.192 295.54 416.089 295.71C416.999 295.881 417.658 296.034 418.067 296.17L415.902 301.625C415.629 301.534 415.294 301.449 414.896 301.369C414.499 301.29 414.078 301.25 413.635 301.25C412.578 301.25 411.8 301.5 411.3 302C410.811 302.489 410.482 303.176 410.311 304.062L405.658 332H398.413Z" fill="#101010"/>
<path d="M388.368 353.364L381.247 373H377.156L370.023 353.364H374.126L379.099 368.474H379.304L384.264 353.364H388.368ZM397.112 373.435C395.868 373.435 394.743 373.205 393.737 372.744C392.732 372.276 391.935 371.598 391.347 370.712C390.767 369.825 390.477 368.739 390.477 367.452C390.477 366.344 390.69 365.432 391.116 364.716C391.543 364 392.118 363.433 392.842 363.016C393.567 362.598 394.376 362.283 395.271 362.07C396.166 361.857 397.078 361.695 398.007 361.584C399.183 361.447 400.138 361.337 400.871 361.251C401.604 361.158 402.136 361.009 402.469 360.804C402.801 360.599 402.967 360.267 402.967 359.807V359.717C402.967 358.601 402.652 357.736 402.021 357.122C401.399 356.509 400.47 356.202 399.234 356.202C397.947 356.202 396.933 356.487 396.192 357.058C395.459 357.621 394.952 358.247 394.67 358.938L391.078 358.119C391.504 356.926 392.126 355.963 392.945 355.23C393.771 354.489 394.722 353.952 395.795 353.619C396.869 353.278 397.999 353.108 399.183 353.108C399.967 353.108 400.798 353.202 401.676 353.389C402.563 353.568 403.389 353.901 404.156 354.386C404.932 354.872 405.567 355.567 406.061 356.47C406.555 357.365 406.803 358.528 406.803 359.96V373H403.07V370.315H402.916C402.669 370.81 402.298 371.295 401.804 371.773C401.31 372.25 400.675 372.646 399.899 372.962C399.124 373.277 398.195 373.435 397.112 373.435ZM397.943 370.366C399 370.366 399.903 370.158 400.653 369.74C401.412 369.322 401.987 368.777 402.379 368.104C402.78 367.422 402.98 366.693 402.98 365.918V363.386C402.844 363.523 402.58 363.651 402.188 363.77C401.804 363.881 401.365 363.979 400.871 364.064C400.376 364.141 399.895 364.213 399.426 364.281C398.957 364.341 398.565 364.392 398.25 364.435C397.509 364.528 396.831 364.686 396.217 364.908C395.612 365.129 395.126 365.449 394.76 365.866C394.402 366.276 394.223 366.821 394.223 367.503C394.223 368.449 394.572 369.165 395.271 369.651C395.97 370.128 396.861 370.366 397.943 370.366ZM411.894 373V353.364H415.588V356.483H415.793C416.151 355.426 416.782 354.595 417.685 353.99C418.597 353.376 419.628 353.07 420.779 353.07C421.017 353.07 421.299 353.078 421.623 353.095C421.955 353.112 422.215 353.134 422.402 353.159V356.815C422.249 356.773 421.976 356.726 421.584 356.675C421.192 356.615 420.8 356.585 420.408 356.585C419.505 356.585 418.699 356.777 417.992 357.161C417.293 357.536 416.739 358.06 416.33 358.733C415.921 359.398 415.716 360.156 415.716 361.009V373H411.894ZM435.238 373V353.364H439.06V373H435.238ZM437.168 350.334C436.503 350.334 435.932 350.112 435.455 349.669C434.986 349.217 434.752 348.68 434.752 348.058C434.752 347.428 434.986 346.891 435.455 346.447C435.932 345.996 436.503 345.77 437.168 345.77C437.833 345.77 438.4 345.996 438.868 346.447C439.346 346.891 439.584 347.428 439.584 348.058C439.584 348.68 439.346 349.217 438.868 349.669C438.4 350.112 437.833 350.334 437.168 350.334ZM449.175 369.42L448.984 370.814C448.856 371.837 448.638 372.902 448.332 374.01C448.033 375.126 447.722 376.162 447.398 377.116C447.083 378.071 446.823 378.83 446.619 379.392H443.908C444.019 378.864 444.173 378.148 444.369 377.244C444.565 376.349 444.756 375.348 444.944 374.24C445.131 373.132 445.272 372.003 445.366 370.852L445.494 369.42H449.175ZM447.181 358.95C446.482 358.95 445.881 358.699 445.379 358.196C444.876 357.693 444.624 357.092 444.624 356.393C444.624 355.695 444.876 355.098 445.379 354.604C445.881 354.101 446.482 353.849 447.181 353.849C447.88 353.849 448.481 354.101 448.984 354.604C449.487 355.098 449.738 355.695 449.738 356.393C449.738 356.862 449.619 357.293 449.38 357.685C449.15 358.068 448.843 358.375 448.46 358.605C448.076 358.835 447.65 358.95 447.181 358.95Z" fill="#101010"/>
<path d="M368.409 332L372.636 308.727H374.909L370.682 332H368.409ZM357.932 325.545L358.341 323.273H375.705L375.295 325.545H357.932ZM360.227 332L364.455 308.727H366.727L362.5 332H360.227ZM359.432 317.455L359.841 315.182H377.205L376.795 317.455H359.432Z" fill="#101010"/>
<path d="M695.81 317.5V275H633.48C629.335 275 626 278.344 626 282.5V427.5C626 431.656 629.335 435 633.48 435H738.195C742.34 435 745.675 431.656 745.675 427.5V325H703.29C699.176 325 695.81 321.625 695.81 317.5ZM745.675 313.094V315H705.783V275H707.684C709.679 275 711.58 275.781 712.982 277.187L743.493 307.812C744.896 309.219 745.675 311.125 745.675 313.094Z" fill="#3B6C99"/>
<path d="M668.368 394.364L661.247 414H657.156L650.023 394.364H654.126L659.099 409.474H659.304L664.264 394.364H668.368ZM677.112 414.435C675.868 414.435 674.743 414.205 673.737 413.744C672.732 413.276 671.935 412.598 671.347 411.712C670.767 410.825 670.477 409.739 670.477 408.452C670.477 407.344 670.69 406.432 671.116 405.716C671.543 405 672.118 404.433 672.842 404.016C673.567 403.598 674.376 403.283 675.271 403.07C676.166 402.857 677.078 402.695 678.007 402.584C679.183 402.447 680.138 402.337 680.871 402.251C681.604 402.158 682.136 402.009 682.469 401.804C682.801 401.599 682.967 401.267 682.967 400.807V400.717C682.967 399.601 682.652 398.736 682.021 398.122C681.399 397.509 680.47 397.202 679.234 397.202C677.947 397.202 676.933 397.487 676.192 398.058C675.459 398.621 674.952 399.247 674.67 399.938L671.078 399.119C671.504 397.926 672.126 396.963 672.945 396.23C673.771 395.489 674.722 394.952 675.795 394.619C676.869 394.278 677.999 394.108 679.183 394.108C679.967 394.108 680.798 394.202 681.676 394.389C682.563 394.568 683.389 394.901 684.156 395.386C684.932 395.872 685.567 396.567 686.061 397.47C686.555 398.365 686.803 399.528 686.803 400.96V414H683.07V411.315H682.916C682.669 411.81 682.298 412.295 681.804 412.773C681.31 413.25 680.675 413.646 679.899 413.962C679.124 414.277 678.195 414.435 677.112 414.435ZM677.943 411.366C679 411.366 679.903 411.158 680.653 410.74C681.412 410.322 681.987 409.777 682.379 409.104C682.78 408.422 682.98 407.693 682.98 406.918V404.386C682.844 404.523 682.58 404.651 682.188 404.77C681.804 404.881 681.365 404.979 680.871 405.064C680.376 405.141 679.895 405.213 679.426 405.281C678.957 405.341 678.565 405.392 678.25 405.435C677.509 405.528 676.831 405.686 676.217 405.908C675.612 406.129 675.126 406.449 674.76 406.866C674.402 407.276 674.223 407.821 674.223 408.503C674.223 409.449 674.572 410.165 675.271 410.651C675.97 411.128 676.861 411.366 677.943 411.366ZM691.894 414V394.364H695.588V397.483H695.793C696.151 396.426 696.782 395.595 697.685 394.99C698.597 394.376 699.628 394.07 700.779 394.07C701.017 394.07 701.299 394.078 701.623 394.095C701.955 394.112 702.215 394.134 702.402 394.159V397.815C702.249 397.773 701.976 397.726 701.584 397.675C701.192 397.615 700.8 397.585 700.408 397.585C699.505 397.585 698.699 397.777 697.992 398.161C697.293 398.536 696.739 399.06 696.33 399.733C695.921 400.398 695.716 401.156 695.716 402.009V414H691.894ZM715.238 414V394.364H719.06V414H715.238ZM717.168 391.334C716.503 391.334 715.932 391.112 715.455 390.669C714.986 390.217 714.752 389.68 714.752 389.058C714.752 388.428 714.986 387.891 715.455 387.447C715.932 386.996 716.503 386.77 717.168 386.77C717.833 386.77 718.4 386.996 718.868 387.447C719.346 387.891 719.584 388.428 719.584 389.058C719.584 389.68 719.346 390.217 718.868 390.669C718.4 391.112 717.833 391.334 717.168 391.334ZM729.175 410.42L728.984 411.814C728.856 412.837 728.638 413.902 728.332 415.01C728.033 416.126 727.722 417.162 727.398 418.116C727.083 419.071 726.823 419.83 726.619 420.392H723.908C724.019 419.864 724.173 419.148 724.369 418.244C724.565 417.349 724.756 416.348 724.944 415.24C725.131 414.132 725.272 413.003 725.366 411.852L725.494 410.42H729.175ZM727.181 399.95C726.482 399.95 725.881 399.699 725.379 399.196C724.876 398.693 724.624 398.092 724.624 397.393C724.624 396.695 724.876 396.098 725.379 395.604C725.881 395.101 726.482 394.849 727.181 394.849C727.88 394.849 728.481 395.101 728.984 395.604C729.487 396.098 729.738 396.695 729.738 397.393C729.738 397.862 729.619 398.293 729.38 398.685C729.15 399.068 728.843 399.375 728.46 399.605C728.076 399.835 727.65 399.95 727.181 399.95Z" fill="#101010"/>
<path d="M852.049 576.171L853.007 577.325L852.049 576.171ZM719.859 634.726C719.321 635.356 719.396 636.303 720.026 636.841L730.293 645.606C730.923 646.144 731.87 646.069 732.408 645.439C732.946 644.809 732.871 643.862 732.241 643.325L723.115 635.533L730.906 626.407C731.444 625.776 731.369 624.83 730.739 624.292C730.109 623.754 729.162 623.829 728.625 624.459L719.859 634.726ZM937.269 457C935.835 456.562 935.835 456.561 935.835 456.561C935.835 456.561 935.835 456.561 935.835 456.561C935.835 456.561 935.835 456.561 935.835 456.561C935.835 456.561 935.835 456.561 935.835 456.562C935.835 456.562 935.834 456.563 935.834 456.564C935.833 456.567 935.832 456.571 935.83 456.577C935.826 456.589 935.82 456.608 935.812 456.633C935.796 456.685 935.772 456.763 935.738 456.867C935.671 457.076 935.569 457.389 935.429 457.803C935.149 458.629 934.72 459.855 934.128 461.438L936.937 462.489C937.541 460.876 937.981 459.62 938.271 458.764C938.415 458.336 938.523 458.008 938.594 457.785C938.63 457.674 938.657 457.589 938.675 457.531C938.684 457.502 938.691 457.48 938.696 457.464C938.698 457.456 938.7 457.45 938.701 457.446C938.702 457.444 938.703 457.442 938.703 457.441C938.703 457.44 938.703 457.44 938.703 457.439C938.704 457.439 938.704 457.439 938.704 457.439C938.704 457.439 938.704 457.439 938.704 457.439C938.704 457.439 938.704 457.438 937.269 457ZM930.16 471.162C928.912 474.009 927.439 477.21 925.72 480.708L928.412 482.031C930.151 478.492 931.643 475.252 932.908 472.367L930.16 471.162ZM920.888 490.061C919.302 492.989 917.573 496.054 915.693 499.233L918.275 500.76C920.175 497.548 921.923 494.45 923.526 491.49L920.888 490.061ZM910.166 508.195C908.332 511.05 906.385 513.972 904.32 516.946L906.784 518.657C908.871 515.652 910.838 512.701 912.69 509.816L910.166 508.195ZM898.158 525.487C896.099 528.236 893.941 531.016 891.68 533.818L894.015 535.701C896.299 532.871 898.479 530.062 900.559 527.286L898.158 525.487ZM884.933 541.881C882.672 544.486 880.322 547.102 877.88 549.72L880.073 551.766C882.541 549.121 884.915 546.479 887.199 543.847L884.933 541.881ZM870.566 557.28C868.115 559.725 865.581 562.164 862.962 564.593L865.002 566.793C867.648 564.339 870.208 561.874 872.685 559.405L870.566 557.28ZM855.123 571.603C853.799 572.745 852.454 573.884 851.09 575.017L853.007 577.325C854.386 576.179 855.744 575.029 857.082 573.875L855.123 571.603ZM851.09 575.017C849.746 576.133 848.403 577.229 847.06 578.304L848.935 580.646C850.292 579.56 851.65 578.453 853.007 577.325L851.09 575.017ZM838.871 584.616C836.045 586.712 833.227 588.721 830.422 590.646L832.119 593.119C834.954 591.174 837.802 589.144 840.658 587.025L838.871 584.616ZM821.781 596.341C818.803 598.225 815.847 600.017 812.919 601.72L814.427 604.313C817.387 602.592 820.375 600.781 823.385 598.876L821.781 596.341ZM803.88 606.755C800.753 608.42 797.668 609.986 794.634 611.458L795.943 614.157C799.011 612.669 802.129 611.086 805.29 609.402L803.88 606.755ZM785.236 615.799C781.974 617.231 778.786 618.554 775.686 619.775L776.785 622.567C779.921 621.331 783.144 619.994 786.442 618.546L785.236 615.799ZM765.981 623.381C762.549 624.58 759.257 625.649 756.126 626.602L756.999 629.472C760.168 628.507 763.499 627.426 766.97 626.213L765.981 623.381ZM746.154 629.408C742.443 630.366 739.067 631.14 736.077 631.763L736.689 634.7C739.723 634.068 743.145 633.283 746.904 632.313L746.154 629.408ZM725.915 633.585C724.272 633.826 723.006 633.982 722.155 634.077C721.729 634.124 721.407 634.156 721.193 634.177C721.087 634.187 721.007 634.194 720.955 634.198C720.929 634.201 720.909 634.202 720.897 634.203C720.891 634.204 720.887 634.204 720.884 634.204C720.883 634.205 720.882 634.205 720.882 634.205C720.882 634.205 720.882 634.205 720.882 634.205C720.882 634.205 720.882 634.205 720.882 634.205C720.882 634.205 720.882 634.205 720.882 634.205C720.882 634.205 720.882 634.205 721 635.7C721.118 637.195 721.118 637.195 721.118 637.195C721.118 637.195 721.118 637.195 721.118 637.195C721.119 637.195 721.119 637.195 721.119 637.195C721.12 637.195 721.12 637.195 721.121 637.195C721.122 637.195 721.124 637.195 721.126 637.195C721.131 637.194 721.137 637.194 721.145 637.193C721.161 637.192 721.184 637.19 721.214 637.187C721.274 637.182 721.362 637.174 721.477 637.163C721.706 637.142 722.045 637.108 722.487 637.058C723.372 636.96 724.672 636.8 726.351 636.553L725.915 633.585ZM852.049 576.171L853.966 578.478L852.049 576.171ZM718.718 633.752C717.643 635.012 717.792 636.906 719.052 637.982L739.587 655.512C740.847 656.588 742.741 656.439 743.816 655.179C744.892 653.918 744.743 652.025 743.483 650.949L725.229 635.366L740.812 617.113C741.888 615.853 741.739 613.959 740.479 612.884C739.218 611.808 737.325 611.957 736.249 613.217L718.718 633.752ZM937.269 457C934.4 456.123 934.4 456.123 934.4 456.123C934.4 456.123 934.4 456.123 934.4 456.123C934.401 456.122 934.401 456.122 934.401 456.122C934.401 456.122 934.401 456.122 934.401 456.122C934.401 456.122 934.401 456.122 934.4 456.123C934.4 456.125 934.399 456.128 934.397 456.134C934.394 456.144 934.389 456.161 934.381 456.185C934.366 456.232 934.343 456.307 934.31 456.408C934.245 456.609 934.145 456.916 934.008 457.322C933.733 458.134 933.31 459.345 932.723 460.912L938.342 463.015C938.952 461.386 939.397 460.115 939.691 459.245C939.839 458.809 939.948 458.474 940.022 458.244C940.059 458.13 940.087 458.041 940.106 457.98C940.116 457.949 940.123 457.925 940.129 457.908C940.131 457.899 940.134 457.892 940.135 457.887C940.136 457.885 940.137 457.882 940.137 457.881C940.137 457.88 940.138 457.879 940.138 457.878C940.138 457.878 940.138 457.878 940.138 457.878C940.138 457.877 940.138 457.877 940.138 457.877C940.138 457.877 940.138 457.877 937.269 457ZM928.786 470.56C927.547 473.388 926.082 476.569 924.374 480.046L929.758 482.692C931.508 479.133 933.009 475.873 934.282 472.969L928.786 470.56ZM919.569 489.347C917.992 492.259 916.272 495.307 914.402 498.469L919.566 501.524C921.476 498.295 923.233 495.18 924.845 492.204L919.569 489.347ZM908.904 507.385C907.08 510.225 905.143 513.131 903.088 516.091L908.016 519.513C910.113 516.493 912.09 513.526 913.952 510.627L908.904 507.385ZM896.957 524.588C894.909 527.322 892.762 530.088 890.513 532.876L895.183 536.643C897.478 533.799 899.669 530.976 901.759 528.185L896.957 524.588ZM883.8 540.897C881.551 543.49 879.213 546.092 876.783 548.696L881.17 552.79C883.65 550.131 886.037 547.475 888.332 544.83L883.8 540.897ZM869.507 556.218C867.069 558.65 864.548 561.077 861.942 563.493L866.022 567.893C868.682 565.426 871.255 562.949 873.744 560.467L869.507 556.218ZM854.144 570.467C852.826 571.603 851.489 572.736 850.131 573.863L853.966 578.478C855.351 577.327 856.717 576.171 858.062 575.011L854.144 570.467ZM850.131 573.863C848.795 574.974 847.459 576.063 846.123 577.133L849.872 581.817C851.236 580.725 852.601 579.612 853.966 578.478L850.131 573.863ZM837.977 583.411C835.166 585.496 832.363 587.494 829.573 589.409L832.967 594.356C835.818 592.401 838.681 590.36 841.552 588.23L837.977 583.411ZM820.978 595.074C818.017 596.948 815.077 598.73 812.164 600.424L815.181 605.61C818.157 603.879 821.161 602.058 824.187 600.144L820.978 595.074ZM803.174 605.431C800.065 607.087 796.997 608.644 793.979 610.108L796.598 615.506C799.682 614.01 802.818 612.419 805.995 610.726L803.174 605.431ZM784.633 614.425C781.389 615.85 778.219 617.165 775.136 618.38L777.335 623.962C780.488 622.72 783.729 621.375 787.045 619.919L784.633 614.425ZM765.486 621.965C762.074 623.157 758.802 624.22 755.689 625.167L757.436 630.907C760.624 629.937 763.974 628.849 767.465 627.629L765.486 621.965ZM745.779 627.956C742.092 628.908 738.739 629.676 735.771 630.294L736.995 636.168C740.051 635.532 743.496 634.742 747.279 633.765L745.779 627.956ZM725.697 632.101C724.072 632.34 722.824 632.493 721.989 632.586C721.571 632.632 721.258 632.664 721.052 632.683C720.949 632.693 720.873 632.7 720.825 632.704C720.801 632.706 720.784 632.708 720.774 632.708C720.768 632.709 720.765 632.709 720.763 632.709C720.763 632.709 720.762 632.709 720.762 632.709C720.762 632.709 720.763 632.709 720.763 632.709C720.763 632.709 720.763 632.709 720.763 632.709C720.763 632.709 720.764 632.709 720.764 632.709C720.764 632.709 720.764 632.709 721 635.7C721.236 638.691 721.236 638.691 721.236 638.691C721.236 638.691 721.237 638.691 721.237 638.691C721.237 638.691 721.237 638.691 721.238 638.691C721.238 638.69 721.239 638.69 721.24 638.69C721.242 638.69 721.244 638.69 721.247 638.69C721.253 638.689 721.26 638.689 721.269 638.688C721.287 638.687 721.312 638.684 721.344 638.682C721.408 638.676 721.499 638.668 721.618 638.657C721.856 638.634 722.202 638.599 722.653 638.549C723.554 638.449 724.872 638.287 726.569 638.038L725.697 632.101Z" fill="white"/>
<path d="M237.357 573.391L236.366 574.517L237.357 573.391ZM168.307 461.943C167.615 461.488 166.685 461.68 166.229 462.372L158.809 473.65C158.354 474.342 158.546 475.272 159.238 475.728C159.93 476.183 160.86 475.991 161.316 475.299L167.911 465.274L177.936 471.869C178.628 472.325 179.558 472.133 180.014 471.441C180.469 470.749 180.277 469.818 179.585 469.363L168.307 461.943ZM357 631C357.166 629.509 357.166 629.509 357.166 629.509C357.166 629.509 357.166 629.509 357.166 629.509C357.166 629.509 357.166 629.509 357.166 629.509C357.167 629.509 357.166 629.509 357.166 629.509C357.166 629.509 357.165 629.509 357.164 629.509C357.162 629.509 357.158 629.508 357.152 629.508C357.141 629.506 357.123 629.504 357.099 629.501C357.051 629.496 356.978 629.487 356.879 629.474C356.683 629.45 356.386 629.411 355.994 629.355C355.211 629.244 354.047 629.066 352.54 628.801L352.021 631.756C353.562 632.027 354.758 632.209 355.572 632.325C355.98 632.383 356.292 632.424 356.503 632.451C356.609 632.464 356.69 632.474 356.745 632.48C356.773 632.484 356.794 632.486 356.809 632.488C356.817 632.489 356.822 632.489 356.826 632.49C356.829 632.49 356.83 632.49 356.831 632.491C356.832 632.491 356.833 632.491 356.833 632.491C356.833 632.491 356.833 632.491 356.834 632.491C356.834 632.491 356.834 632.491 356.834 632.491C356.834 632.491 356.834 632.491 357 631ZM343.214 626.874C340.468 626.23 337.37 625.442 333.971 624.481L333.155 627.368C336.6 628.342 339.741 629.141 342.53 629.795L343.214 626.874ZM324.846 621.695C321.976 620.754 318.962 619.705 315.826 618.538L314.779 621.35C317.954 622.531 321.005 623.593 323.912 624.546L324.846 621.695ZM306.942 615.035C304.1 613.851 301.182 612.573 298.202 611.196L296.944 613.919C299.959 615.313 302.912 616.606 305.788 617.804L306.942 615.035ZM289.609 607.023C286.833 605.61 284.016 604.11 281.167 602.519L279.705 605.139C282.588 606.749 285.438 608.266 288.247 609.697L289.609 607.023ZM272.934 597.714C270.262 596.086 267.57 594.376 264.865 592.58L263.206 595.08C265.944 596.897 268.669 598.628 271.373 600.276L272.934 597.714ZM257.023 587.155C254.476 585.32 251.925 583.407 249.373 581.413L247.526 583.777C250.108 585.795 252.691 587.731 255.269 589.589L257.023 587.155ZM241.975 575.396C240.764 574.371 239.555 573.328 238.348 572.265L236.366 574.517C237.588 575.593 238.812 576.649 240.037 577.686L241.975 575.396ZM238.348 572.265C237.159 571.219 235.989 570.168 234.838 569.115L232.812 571.327C233.977 572.394 235.162 573.457 236.366 574.517L238.348 572.265ZM228.047 562.646C225.781 560.4 223.597 558.146 221.493 555.889L219.299 557.934C221.429 560.22 223.641 562.503 225.936 564.777L228.047 562.646ZM215.232 548.898C213.147 546.476 211.151 544.057 209.241 541.648L206.891 543.513C208.825 545.952 210.847 548.402 212.958 550.855L215.232 548.898ZM203.559 534.185C201.664 531.591 199.867 529.018 198.162 526.475L195.67 528.146C197.397 530.721 199.217 533.327 201.136 535.954L203.559 534.185ZM193.09 518.57C191.4 515.816 189.82 513.113 188.344 510.472L185.725 511.936C187.221 514.611 188.821 517.35 190.533 520.139L193.09 518.57ZM183.93 502.182C182.443 499.243 181.09 496.411 179.862 493.706L177.13 494.946C178.375 497.688 179.746 500.559 181.254 503.537L183.93 502.182ZM176.169 485.073C174.875 481.848 173.788 478.9 172.882 476.28L170.047 477.26C170.968 479.924 172.072 482.918 173.385 486.19L176.169 485.073ZM170.079 467.347C169.675 465.899 169.392 464.777 169.21 464.022C169.119 463.645 169.054 463.359 169.011 463.169C168.99 463.074 168.975 463.003 168.965 462.957C168.96 462.934 168.956 462.917 168.954 462.906C168.953 462.901 168.952 462.897 168.952 462.895C168.952 462.894 168.952 462.893 168.951 462.893C168.951 462.893 168.951 462.893 168.951 462.893C168.951 462.893 168.951 462.893 168.951 462.893C168.951 462.893 168.951 462.893 168.951 462.893C168.951 462.893 168.951 462.893 167.482 463.196C166.013 463.5 166.013 463.5 166.013 463.5C166.013 463.5 166.013 463.5 166.013 463.5C166.014 463.5 166.014 463.5 166.014 463.501C166.014 463.501 166.014 463.502 166.014 463.502C166.014 463.503 166.015 463.505 166.015 463.507C166.016 463.511 166.017 463.517 166.019 463.524C166.022 463.539 166.026 463.56 166.032 463.587C166.043 463.64 166.06 463.719 166.083 463.822C166.129 464.028 166.199 464.33 166.293 464.724C166.483 465.512 166.775 466.668 167.189 468.152L170.079 467.347ZM237.357 573.391L235.374 575.643L237.357 573.391ZM169.131 460.69C167.747 459.78 165.887 460.163 164.976 461.548L150.136 484.104C149.226 485.488 149.61 487.348 150.994 488.259C152.378 489.17 154.238 488.786 155.149 487.401L168.34 467.352L188.39 480.542C189.774 481.453 191.634 481.069 192.545 479.685C193.456 478.301 193.072 476.441 191.687 475.53L169.131 460.69ZM357 631C357.332 628.018 357.332 628.018 357.332 628.018C357.333 628.018 357.333 628.019 357.333 628.019C357.333 628.019 357.333 628.019 357.333 628.019C357.333 628.019 357.334 628.019 357.334 628.019C357.334 628.019 357.333 628.019 357.333 628.019C357.331 628.018 357.328 628.018 357.323 628.017C357.314 628.016 357.298 628.015 357.276 628.012C357.232 628.007 357.162 627.998 357.067 627.986C356.878 627.962 356.589 627.924 356.205 627.87C355.437 627.761 354.29 627.586 352.799 627.324L351.761 633.233C353.319 633.507 354.532 633.692 355.362 633.81C355.777 633.869 356.096 633.911 356.315 633.939C356.425 633.953 356.509 633.963 356.568 633.97C356.598 633.974 356.621 633.976 356.638 633.978C356.646 633.979 356.653 633.98 356.658 633.98C356.66 633.981 356.662 633.981 356.664 633.981C356.665 633.981 356.666 633.981 356.666 633.981C356.667 633.981 356.667 633.981 356.667 633.981C356.667 633.982 356.668 633.982 356.668 633.982C356.668 633.982 356.668 633.982 357 631ZM343.557 625.414C340.831 624.775 337.755 623.992 334.379 623.038L332.747 628.811C336.214 629.791 339.378 630.597 342.187 631.256L343.557 625.414ZM325.314 620.269C322.461 619.334 319.466 618.292 316.349 617.132L314.256 622.756C317.45 623.944 320.52 625.012 323.445 625.971L325.314 620.269ZM307.519 613.651C304.694 612.473 301.794 611.204 298.832 609.834L296.314 615.281C299.348 616.683 302.318 617.983 305.211 619.189L307.519 613.651ZM290.289 605.687C287.53 604.282 284.73 602.791 281.899 601.21L278.974 606.449C281.874 608.068 284.741 609.594 287.567 611.033L290.289 605.687ZM273.715 596.434C271.059 594.815 268.383 593.115 265.695 591.331L262.377 596.33C265.131 598.158 267.872 599.899 270.592 601.557L273.715 596.434ZM257.9 585.938C255.369 584.114 252.833 582.213 250.297 580.231L246.602 584.959C249.2 586.989 251.799 588.937 254.391 590.806L257.9 585.938ZM242.944 574.251C241.741 573.233 240.539 572.196 239.339 571.139L235.374 575.643C236.604 576.725 237.835 577.788 239.068 578.831L242.944 574.251ZM239.339 571.139C238.157 570.099 236.995 569.055 235.851 568.008L231.799 572.433C232.971 573.507 234.163 574.577 235.374 575.643L239.339 571.139ZM229.103 561.58C226.851 559.349 224.681 557.109 222.59 554.866L218.202 558.957C220.345 561.257 222.571 563.554 224.88 565.842L229.103 561.58ZM216.369 547.92C214.297 545.513 212.314 543.109 210.416 540.716L205.715 544.445C207.663 546.9 209.696 549.365 211.821 551.833L216.369 547.92ZM204.77 533.3C202.888 530.723 201.102 528.166 199.408 525.64L194.425 528.981C196.162 531.572 197.994 534.195 199.925 536.839L204.77 533.3ZM194.368 517.786C192.69 515.05 191.12 512.364 189.653 509.74L184.416 512.668C185.921 515.36 187.532 518.117 189.254 520.923L194.368 517.786ZM185.269 501.505C183.791 498.585 182.447 495.772 181.228 493.086L175.764 495.566C177.018 498.327 178.398 501.217 179.915 504.215L185.269 501.505ZM177.562 484.514C176.277 481.314 175.198 478.388 174.3 475.79L168.629 477.75C169.558 480.436 170.671 483.453 171.993 486.749L177.562 484.514ZM171.524 466.945C171.125 465.514 170.846 464.41 170.668 463.671C170.58 463.302 170.516 463.024 170.475 462.842C170.455 462.751 170.441 462.684 170.432 462.642C170.427 462.621 170.424 462.606 170.422 462.598C170.421 462.593 170.421 462.59 170.42 462.589C170.42 462.589 170.42 462.588 170.42 462.588C170.42 462.589 170.42 462.589 170.42 462.589C170.42 462.589 170.42 462.589 170.42 462.59C170.42 462.59 170.42 462.59 170.42 462.59C170.421 462.59 170.421 462.59 167.482 463.196C164.544 463.803 164.544 463.803 164.544 463.803C164.544 463.803 164.544 463.803 164.545 463.803C164.545 463.804 164.545 463.804 164.545 463.804C164.545 463.805 164.545 463.806 164.545 463.807C164.546 463.809 164.546 463.811 164.547 463.813C164.548 463.818 164.549 463.825 164.551 463.833C164.554 463.85 164.559 463.872 164.565 463.901C164.578 463.959 164.596 464.042 164.619 464.149C164.667 464.362 164.738 464.673 164.835 465.075C165.029 465.88 165.325 467.053 165.744 468.555L171.524 466.945Z" fill="white"/>
<path d="M889.31 619L884.815 603.727H887.888L890.881 614.943H891.03L894.033 603.727H897.105L900.088 614.893H900.237L903.21 603.727H906.283L901.798 619H898.766L895.663 607.973H895.435L892.332 619H889.31ZM913.549 619.338C912.581 619.338 911.706 619.159 910.924 618.801C910.141 618.437 909.522 617.91 909.064 617.22C908.614 616.531 908.388 615.686 908.388 614.685C908.388 613.823 908.554 613.114 908.885 612.557C909.217 612 909.664 611.559 910.228 611.234C910.791 610.91 911.421 610.664 912.117 610.499C912.813 610.333 913.522 610.207 914.245 610.121C915.159 610.015 915.902 609.929 916.472 609.862C917.042 609.789 917.456 609.673 917.715 609.514C917.973 609.355 918.103 609.097 918.103 608.739V608.669C918.103 607.801 917.857 607.128 917.367 606.651C916.883 606.173 916.16 605.935 915.199 605.935C914.198 605.935 913.409 606.157 912.833 606.601C912.263 607.038 911.868 607.526 911.65 608.062L908.855 607.426C909.187 606.498 909.671 605.749 910.307 605.179C910.95 604.602 911.689 604.185 912.525 603.926C913.36 603.661 914.238 603.528 915.159 603.528C915.769 603.528 916.416 603.601 917.098 603.747C917.788 603.886 918.431 604.145 919.027 604.523C919.631 604.901 920.124 605.441 920.509 606.143C920.893 606.839 921.086 607.744 921.086 608.858V619H918.182V616.912H918.063C917.871 617.296 917.582 617.674 917.198 618.045C916.813 618.417 916.319 618.725 915.716 618.97C915.113 619.215 914.391 619.338 913.549 619.338ZM914.195 616.952C915.017 616.952 915.72 616.789 916.303 616.464C916.893 616.14 917.34 615.715 917.645 615.192C917.957 614.661 918.113 614.095 918.113 613.491V611.523C918.007 611.629 917.801 611.728 917.496 611.821C917.198 611.907 916.856 611.983 916.472 612.05C916.087 612.109 915.713 612.166 915.348 612.219C914.984 612.265 914.679 612.305 914.434 612.338C913.857 612.411 913.33 612.534 912.853 612.706C912.382 612.878 912.004 613.127 911.719 613.452C911.441 613.77 911.301 614.194 911.301 614.724C911.301 615.46 911.573 616.017 912.117 616.395C912.66 616.766 913.353 616.952 914.195 616.952ZM932.175 603.727V606.114H923.832V603.727H932.175ZM926.07 600.068H929.043V614.516C929.043 615.092 929.129 615.527 929.301 615.818C929.473 616.103 929.696 616.299 929.967 616.405C930.246 616.504 930.547 616.554 930.872 616.554C931.111 616.554 931.32 616.537 931.499 616.504C931.678 616.471 931.817 616.445 931.916 616.425L932.453 618.881C932.281 618.947 932.036 619.013 931.717 619.08C931.399 619.152 931.001 619.192 930.524 619.199C929.742 619.212 929.013 619.073 928.337 618.781C927.661 618.49 927.114 618.039 926.696 617.429C926.278 616.819 926.07 616.054 926.07 615.132V600.068ZM941.733 619.308C940.254 619.308 938.982 618.973 937.914 618.304C936.854 617.628 936.038 616.696 935.468 615.51C934.898 614.323 934.613 612.964 934.613 611.433C934.613 609.882 934.905 608.513 935.488 607.327C936.072 606.134 936.894 605.202 937.954 604.533C939.015 603.863 940.264 603.528 941.703 603.528C942.863 603.528 943.897 603.744 944.805 604.175C945.713 604.599 946.446 605.196 947.002 605.964C947.566 606.733 947.901 607.632 948.007 608.659H945.113C944.954 607.943 944.59 607.327 944.02 606.81C943.456 606.293 942.7 606.034 941.752 606.034C940.924 606.034 940.198 606.253 939.575 606.69C938.958 607.121 938.478 607.738 938.133 608.54C937.788 609.335 937.616 610.277 937.616 611.364C937.616 612.477 937.785 613.438 938.123 614.247C938.461 615.056 938.939 615.682 939.555 616.126C940.178 616.571 940.911 616.793 941.752 616.793C942.316 616.793 942.826 616.69 943.284 616.484C943.748 616.272 944.136 615.971 944.447 615.58C944.765 615.188 944.987 614.718 945.113 614.168H948.007C947.901 615.155 947.579 616.037 947.042 616.812C946.505 617.588 945.786 618.198 944.885 618.642C943.99 619.086 942.939 619.308 941.733 619.308ZM954.159 609.932V619H951.186V598.636H954.119V606.213H954.308C954.666 605.391 955.213 604.738 955.949 604.254C956.685 603.77 957.646 603.528 958.832 603.528C959.88 603.528 960.795 603.744 961.577 604.175C962.366 604.606 962.975 605.249 963.406 606.104C963.844 606.952 964.062 608.013 964.062 609.286V619H961.089V609.643C961.089 608.523 960.801 607.655 960.224 607.038C959.648 606.415 958.846 606.104 957.818 606.104C957.116 606.104 956.486 606.253 955.929 606.551C955.379 606.849 954.945 607.287 954.626 607.864C954.315 608.434 954.159 609.123 954.159 609.932ZM892.581 653.308C891.076 653.308 889.78 652.987 888.693 652.344C887.613 651.694 886.777 650.783 886.188 649.609C885.604 648.429 885.312 647.047 885.312 645.463C885.312 643.899 885.604 642.52 886.188 641.327C886.777 640.134 887.599 639.202 888.653 638.533C889.714 637.863 890.954 637.528 892.372 637.528C893.234 637.528 894.069 637.671 894.878 637.956C895.687 638.241 896.412 638.688 897.055 639.298C897.698 639.908 898.205 640.7 898.577 641.675C898.948 642.643 899.134 643.819 899.134 645.205V646.259H886.993V644.031H896.22C896.22 643.249 896.061 642.556 895.743 641.953C895.425 641.343 894.977 640.863 894.401 640.511C893.83 640.16 893.161 639.984 892.392 639.984C891.557 639.984 890.828 640.19 890.205 640.601C889.588 641.005 889.111 641.536 888.773 642.192C888.441 642.841 888.276 643.547 888.276 644.31V646.05C888.276 647.071 888.455 647.939 888.812 648.655C889.177 649.371 889.684 649.918 890.334 650.295C890.983 650.667 891.742 650.852 892.611 650.852C893.174 650.852 893.688 650.773 894.152 650.614C894.616 650.448 895.017 650.203 895.355 649.878C895.693 649.553 895.952 649.152 896.131 648.675L898.945 649.182C898.719 650.01 898.315 650.736 897.732 651.359C897.155 651.976 896.429 652.456 895.554 652.801C894.686 653.139 893.695 653.308 892.581 653.308ZM905.405 643.932V653H902.432V637.727H905.286V640.213H905.475C905.826 639.404 906.376 638.755 907.125 638.264C907.881 637.774 908.832 637.528 909.979 637.528C911.02 637.528 911.931 637.747 912.713 638.185C913.496 638.616 914.102 639.259 914.533 640.114C914.964 640.969 915.179 642.026 915.179 643.286V653H912.206V643.643C912.206 642.536 911.918 641.671 911.341 641.048C910.765 640.419 909.972 640.104 908.965 640.104C908.275 640.104 907.662 640.253 907.125 640.551C906.595 640.849 906.174 641.287 905.863 641.864C905.558 642.434 905.405 643.123 905.405 643.932ZM923.611 653.338C922.643 653.338 921.768 653.159 920.986 652.801C920.204 652.437 919.584 651.91 919.127 651.22C918.676 650.531 918.451 649.686 918.451 648.685C918.451 647.823 918.616 647.114 918.948 646.557C919.279 646 919.727 645.559 920.29 645.234C920.854 644.91 921.483 644.664 922.179 644.499C922.875 644.333 923.585 644.207 924.307 644.121C925.222 644.015 925.964 643.929 926.534 643.862C927.105 643.789 927.519 643.673 927.777 643.514C928.036 643.355 928.165 643.097 928.165 642.739V642.669C928.165 641.801 927.92 641.128 927.429 640.651C926.945 640.173 926.223 639.935 925.262 639.935C924.261 639.935 923.472 640.157 922.895 640.601C922.325 641.038 921.931 641.526 921.712 642.062L918.918 641.426C919.249 640.498 919.733 639.749 920.37 639.179C921.013 638.602 921.752 638.185 922.587 637.926C923.422 637.661 924.301 637.528 925.222 637.528C925.832 637.528 926.478 637.601 927.161 637.747C927.85 637.886 928.493 638.145 929.09 638.523C929.693 638.901 930.187 639.441 930.571 640.143C930.956 640.839 931.148 641.744 931.148 642.858V653H928.245V650.912H928.125C927.933 651.296 927.645 651.674 927.26 652.045C926.876 652.417 926.382 652.725 925.779 652.97C925.176 653.215 924.453 653.338 923.611 653.338ZM924.257 650.952C925.079 650.952 925.782 650.789 926.365 650.464C926.955 650.14 927.403 649.715 927.708 649.192C928.019 648.661 928.175 648.095 928.175 647.491V645.523C928.069 645.629 927.864 645.728 927.559 645.821C927.26 645.907 926.919 645.983 926.534 646.05C926.15 646.109 925.775 646.166 925.411 646.219C925.046 646.265 924.741 646.305 924.496 646.338C923.919 646.411 923.392 646.534 922.915 646.706C922.444 646.878 922.067 647.127 921.782 647.452C921.503 647.77 921.364 648.194 921.364 648.724C921.364 649.46 921.636 650.017 922.179 650.395C922.723 650.766 923.416 650.952 924.257 650.952ZM935.347 653V632.636H938.32V640.203H938.499C938.671 639.885 938.92 639.517 939.244 639.099C939.569 638.682 940.02 638.317 940.597 638.006C941.173 637.688 941.936 637.528 942.884 637.528C944.116 637.528 945.217 637.84 946.185 638.463C947.152 639.086 947.911 639.984 948.462 641.158C949.018 642.331 949.297 643.743 949.297 645.393C949.297 647.044 949.022 648.459 948.472 649.639C947.921 650.812 947.166 651.717 946.205 652.354C945.243 652.983 944.146 653.298 942.913 653.298C941.985 653.298 941.226 653.143 940.636 652.831C940.053 652.519 939.596 652.155 939.264 651.737C938.933 651.32 938.678 650.948 938.499 650.624H938.25V653H935.347ZM938.26 645.364C938.26 646.437 938.416 647.379 938.727 648.188C939.039 648.996 939.49 649.629 940.08 650.087C940.67 650.537 941.392 650.763 942.247 650.763C943.135 650.763 943.878 650.527 944.474 650.057C945.071 649.58 945.522 648.933 945.827 648.118C946.138 647.303 946.294 646.384 946.294 645.364C946.294 644.356 946.142 643.451 945.837 642.649C945.538 641.847 945.088 641.214 944.484 640.75C943.888 640.286 943.142 640.054 942.247 640.054C941.385 640.054 940.656 640.276 940.06 640.72C939.47 641.164 939.022 641.784 938.717 642.58C938.412 643.375 938.26 644.303 938.26 645.364ZM955.608 632.636V653H952.635V632.636H955.608ZM966.19 653.308C964.686 653.308 963.39 652.987 962.303 652.344C961.222 651.694 960.387 650.783 959.797 649.609C959.214 648.429 958.922 647.047 958.922 645.463C958.922 643.899 959.214 642.52 959.797 641.327C960.387 640.134 961.209 639.202 962.263 638.533C963.323 637.863 964.563 637.528 965.982 637.528C966.843 637.528 967.679 637.671 968.487 637.956C969.296 638.241 970.022 638.688 970.665 639.298C971.308 639.908 971.815 640.7 972.186 641.675C972.557 642.643 972.743 643.819 972.743 645.205V646.259H960.602V644.031H969.83C969.83 643.249 969.67 642.556 969.352 641.953C969.034 641.343 968.587 640.863 968.01 640.511C967.44 640.16 966.77 639.984 966.001 639.984C965.166 639.984 964.437 640.19 963.814 640.601C963.197 641.005 962.72 641.536 962.382 642.192C962.051 642.841 961.885 643.547 961.885 644.31V646.05C961.885 647.071 962.064 647.939 962.422 648.655C962.786 649.371 963.294 649.918 963.943 650.295C964.593 650.667 965.352 650.852 966.22 650.852C966.784 650.852 967.297 650.773 967.761 650.614C968.225 650.448 968.626 650.203 968.964 649.878C969.303 649.553 969.561 649.152 969.74 648.675L972.554 649.182C972.329 650.01 971.924 650.736 971.341 651.359C970.764 651.976 970.038 652.456 969.163 652.801C968.295 653.139 967.304 653.308 966.19 653.308ZM981.759 653.298C980.526 653.298 979.426 652.983 978.458 652.354C977.497 651.717 976.741 650.812 976.191 649.639C975.647 648.459 975.375 647.044 975.375 645.393C975.375 643.743 975.65 642.331 976.201 641.158C976.757 639.984 977.52 639.086 978.488 638.463C979.455 637.84 980.552 637.528 981.779 637.528C982.727 637.528 983.489 637.688 984.066 638.006C984.649 638.317 985.1 638.682 985.418 639.099C985.743 639.517 985.995 639.885 986.174 640.203H986.353V632.636H989.326V653H986.422V650.624H986.174C985.995 650.948 985.736 651.32 985.398 651.737C985.067 652.155 984.609 652.519 984.026 652.831C983.443 653.143 982.687 653.298 981.759 653.298ZM982.415 650.763C983.27 650.763 983.993 650.537 984.583 650.087C985.179 649.629 985.63 648.996 985.935 648.188C986.247 647.379 986.402 646.437 986.402 645.364C986.402 644.303 986.25 643.375 985.945 642.58C985.64 641.784 985.193 641.164 984.603 640.72C984.013 640.276 983.283 640.054 982.415 640.054C981.52 640.054 980.775 640.286 980.178 640.75C979.581 641.214 979.131 641.847 978.826 642.649C978.527 643.451 978.378 644.356 978.378 645.364C978.378 646.384 978.531 647.303 978.836 648.118C979.141 648.933 979.591 649.58 980.188 650.057C980.791 650.527 981.533 650.763 982.415 650.763ZM996.82 647.143V646.955C996.834 645.722 996.956 644.741 997.188 644.011C997.427 643.282 997.765 642.692 998.202 642.241C998.64 641.791 999.167 641.38 999.783 641.009C1000.18 640.757 1000.54 640.475 1000.86 640.163C1001.18 639.852 1001.43 639.494 1001.61 639.089C1001.8 638.685 1001.89 638.238 1001.89 637.747C1001.89 637.157 1001.75 636.647 1001.47 636.216C1001.2 635.785 1000.82 635.454 1000.36 635.222C999.903 634.983 999.392 634.864 998.829 634.864C998.318 634.864 997.831 634.97 997.367 635.182C996.903 635.394 996.519 635.725 996.214 636.176C995.909 636.62 995.733 637.194 995.687 637.896H992.664C992.71 636.703 993.012 635.696 993.569 634.874C994.126 634.045 994.862 633.419 995.776 632.994C996.698 632.57 997.715 632.358 998.829 632.358C1000.05 632.358 1001.12 632.587 1002.03 633.044C1002.95 633.495 1003.65 634.128 1004.16 634.943C1004.67 635.752 1004.92 636.696 1004.92 637.777C1004.92 638.519 1004.81 639.189 1004.58 639.786C1004.34 640.375 1004.01 640.902 1003.58 641.366C1003.16 641.83 1002.65 642.241 1002.05 642.599C1001.49 642.951 1001.03 643.315 1000.68 643.693C1000.33 644.071 1000.08 644.518 999.923 645.036C999.763 645.553 999.677 646.192 999.664 646.955V647.143H996.82ZM998.322 653.189C997.778 653.189 997.311 652.997 996.92 652.612C996.529 652.221 996.333 651.75 996.333 651.2C996.333 650.657 996.529 650.193 996.92 649.808C997.311 649.417 997.778 649.222 998.322 649.222C998.859 649.222 999.323 649.417 999.714 649.808C1000.11 650.193 1000.31 650.657 1000.31 651.2C1000.31 651.565 1000.22 651.9 1000.03 652.205C999.853 652.503 999.614 652.741 999.316 652.92C999.018 653.099 998.686 653.189 998.322 653.189Z" fill="white"/>
<path d="M121.432 646.308C120 646.308 118.75 645.98 117.683 645.324C116.616 644.668 115.787 643.75 115.197 642.57C114.607 641.39 114.312 640.011 114.312 638.433C114.312 636.849 114.607 635.464 115.197 634.277C115.787 633.09 116.616 632.169 117.683 631.513C118.75 630.857 120 630.528 121.432 630.528C122.864 630.528 124.113 630.857 125.18 631.513C126.248 632.169 127.076 633.09 127.666 634.277C128.256 635.464 128.551 636.849 128.551 638.433C128.551 640.011 128.256 641.39 127.666 642.57C127.076 643.75 126.248 644.668 125.18 645.324C124.113 645.98 122.864 646.308 121.432 646.308ZM121.442 643.812C122.37 643.812 123.139 643.567 123.749 643.077C124.358 642.586 124.809 641.933 125.101 641.118C125.399 640.303 125.548 639.404 125.548 638.423C125.548 637.449 125.399 636.554 125.101 635.739C124.809 634.917 124.358 634.257 123.749 633.76C123.139 633.263 122.37 633.014 121.442 633.014C120.507 633.014 119.732 633.263 119.115 633.76C118.505 634.257 118.051 634.917 117.753 635.739C117.461 636.554 117.315 637.449 117.315 638.423C117.315 639.404 117.461 640.303 117.753 641.118C118.051 641.933 118.505 642.586 119.115 643.077C119.732 643.567 120.507 643.812 121.442 643.812ZM134.843 636.932V646H131.87V630.727H134.723V633.213H134.912C135.264 632.404 135.814 631.755 136.563 631.264C137.319 630.774 138.27 630.528 139.417 630.528C140.457 630.528 141.369 630.747 142.151 631.185C142.933 631.616 143.54 632.259 143.971 633.114C144.401 633.969 144.617 635.026 144.617 636.286V646H141.644V636.643C141.644 635.536 141.355 634.671 140.779 634.048C140.202 633.419 139.41 633.104 138.402 633.104C137.713 633.104 137.1 633.253 136.563 633.551C136.033 633.849 135.612 634.287 135.3 634.864C134.995 635.434 134.843 636.123 134.843 636.932ZM162.447 646.308C160.969 646.308 159.696 645.973 158.629 645.304C157.569 644.628 156.753 643.696 156.183 642.51C155.613 641.323 155.328 639.964 155.328 638.433C155.328 636.882 155.62 635.513 156.203 634.327C156.786 633.134 157.608 632.202 158.669 631.533C159.73 630.863 160.979 630.528 162.418 630.528C163.578 630.528 164.612 630.744 165.52 631.175C166.428 631.599 167.161 632.196 167.717 632.964C168.281 633.733 168.616 634.632 168.722 635.659H165.828C165.669 634.943 165.304 634.327 164.734 633.81C164.171 633.293 163.415 633.034 162.467 633.034C161.639 633.034 160.913 633.253 160.29 633.69C159.673 634.121 159.193 634.738 158.848 635.54C158.503 636.335 158.331 637.277 158.331 638.364C158.331 639.477 158.5 640.438 158.838 641.247C159.176 642.056 159.653 642.682 160.27 643.126C160.893 643.571 161.625 643.793 162.467 643.793C163.031 643.793 163.541 643.69 163.999 643.484C164.463 643.272 164.85 642.971 165.162 642.58C165.48 642.188 165.702 641.718 165.828 641.168H168.722C168.616 642.155 168.294 643.037 167.757 643.812C167.22 644.588 166.501 645.198 165.599 645.642C164.705 646.086 163.654 646.308 162.447 646.308ZM174.874 636.932V646H171.901V625.636H174.834V633.213H175.023C175.381 632.391 175.928 631.738 176.664 631.254C177.4 630.77 178.361 630.528 179.547 630.528C180.595 630.528 181.509 630.744 182.292 631.175C183.08 631.606 183.69 632.249 184.121 633.104C184.559 633.952 184.777 635.013 184.777 636.286V646H181.804V636.643C181.804 635.523 181.516 634.655 180.939 634.038C180.363 633.415 179.56 633.104 178.533 633.104C177.83 633.104 177.201 633.253 176.644 633.551C176.094 633.849 175.659 634.287 175.341 634.864C175.03 635.434 174.874 636.123 174.874 636.932ZM193.189 646.338C192.221 646.338 191.346 646.159 190.564 645.801C189.782 645.437 189.162 644.91 188.705 644.22C188.254 643.531 188.029 642.686 188.029 641.685C188.029 640.823 188.194 640.114 188.526 639.557C188.857 639 189.305 638.559 189.868 638.234C190.432 637.91 191.061 637.664 191.757 637.499C192.453 637.333 193.163 637.207 193.885 637.121C194.8 637.015 195.542 636.929 196.113 636.862C196.683 636.789 197.097 636.673 197.355 636.514C197.614 636.355 197.743 636.097 197.743 635.739V635.669C197.743 634.801 197.498 634.128 197.007 633.651C196.524 633.173 195.801 632.935 194.84 632.935C193.839 632.935 193.05 633.157 192.473 633.601C191.903 634.038 191.509 634.526 191.29 635.062L188.496 634.426C188.828 633.498 189.311 632.749 189.948 632.179C190.591 631.602 191.33 631.185 192.165 630.926C193 630.661 193.879 630.528 194.8 630.528C195.41 630.528 196.056 630.601 196.739 630.747C197.428 630.886 198.071 631.145 198.668 631.523C199.271 631.901 199.765 632.441 200.15 633.143C200.534 633.839 200.726 634.744 200.726 635.858V646H197.823V643.912H197.703C197.511 644.296 197.223 644.674 196.838 645.045C196.454 645.417 195.96 645.725 195.357 645.97C194.754 646.215 194.031 646.338 193.189 646.338ZM193.836 643.952C194.658 643.952 195.36 643.789 195.944 643.464C196.533 643.14 196.981 642.715 197.286 642.192C197.597 641.661 197.753 641.095 197.753 640.491V638.523C197.647 638.629 197.442 638.728 197.137 638.821C196.838 638.907 196.497 638.983 196.113 639.05C195.728 639.109 195.354 639.166 194.989 639.219C194.624 639.265 194.319 639.305 194.074 639.338C193.498 639.411 192.971 639.534 192.493 639.706C192.023 639.878 191.645 640.127 191.36 640.452C191.081 640.77 190.942 641.194 190.942 641.724C190.942 642.46 191.214 643.017 191.757 643.395C192.301 643.766 192.994 643.952 193.836 643.952ZM207.659 636.932V646H204.686V630.727H207.54V633.213H207.729C208.08 632.404 208.63 631.755 209.379 631.264C210.135 630.774 211.086 630.528 212.233 630.528C213.274 630.528 214.185 630.747 214.967 631.185C215.75 631.616 216.356 632.259 216.787 633.114C217.218 633.969 217.433 635.026 217.433 636.286V646H214.46V636.643C214.46 635.536 214.172 634.671 213.595 634.048C213.018 633.419 212.226 633.104 211.219 633.104C210.529 633.104 209.916 633.253 209.379 633.551C208.849 633.849 208.428 634.287 208.116 634.864C207.812 635.434 207.659 636.123 207.659 636.932ZM227.824 652.045C226.611 652.045 225.567 651.886 224.692 651.568C223.823 651.25 223.114 650.829 222.564 650.305C222.014 649.782 221.603 649.208 221.331 648.585L223.886 647.531C224.065 647.823 224.304 648.131 224.602 648.456C224.907 648.787 225.318 649.069 225.835 649.301C226.359 649.533 227.032 649.649 227.854 649.649C228.981 649.649 229.912 649.374 230.648 648.824C231.384 648.28 231.751 647.412 231.751 646.219V643.216H231.562C231.384 643.541 231.125 643.902 230.787 644.3C230.455 644.697 229.998 645.042 229.415 645.334C228.831 645.625 228.072 645.771 227.138 645.771C225.931 645.771 224.844 645.49 223.876 644.926C222.915 644.356 222.153 643.518 221.589 642.411C221.033 641.297 220.754 639.928 220.754 638.304C220.754 636.68 221.029 635.288 221.58 634.128C222.136 632.968 222.899 632.08 223.866 631.463C224.834 630.84 225.931 630.528 227.158 630.528C228.106 630.528 228.871 630.688 229.455 631.006C230.038 631.317 230.492 631.682 230.817 632.099C231.148 632.517 231.403 632.885 231.582 633.203H231.801V630.727H234.714V646.338C234.714 647.651 234.41 648.728 233.8 649.57C233.19 650.411 232.365 651.035 231.324 651.439C230.29 651.843 229.123 652.045 227.824 652.045ZM227.794 643.305C228.649 643.305 229.372 643.107 229.962 642.709C230.558 642.304 231.009 641.728 231.314 640.979C231.625 640.223 231.781 639.318 231.781 638.264C231.781 637.237 231.629 636.332 231.324 635.55C231.019 634.768 230.571 634.158 229.982 633.72C229.392 633.276 228.662 633.054 227.794 633.054C226.899 633.054 226.153 633.286 225.557 633.75C224.96 634.207 224.509 634.83 224.205 635.619C223.906 636.408 223.757 637.29 223.757 638.264C223.757 639.265 223.91 640.143 224.214 640.899C224.519 641.655 224.97 642.245 225.567 642.669C226.17 643.093 226.912 643.305 227.794 643.305ZM245.284 646.308C243.779 646.308 242.483 645.987 241.396 645.344C240.316 644.694 239.481 643.783 238.891 642.609C238.307 641.429 238.016 640.047 238.016 638.463C238.016 636.899 238.307 635.52 238.891 634.327C239.481 633.134 240.303 632.202 241.357 631.533C242.417 630.863 243.657 630.528 245.075 630.528C245.937 630.528 246.772 630.671 247.581 630.956C248.39 631.241 249.116 631.688 249.759 632.298C250.402 632.908 250.909 633.7 251.28 634.675C251.651 635.643 251.837 636.819 251.837 638.205V639.259H239.696V637.031H248.923C248.923 636.249 248.764 635.556 248.446 634.953C248.128 634.343 247.68 633.863 247.104 633.511C246.534 633.16 245.864 632.984 245.095 632.984C244.26 632.984 243.531 633.19 242.908 633.601C242.291 634.005 241.814 634.536 241.476 635.192C241.144 635.841 240.979 636.547 240.979 637.31V639.05C240.979 640.071 241.158 640.939 241.516 641.655C241.88 642.371 242.387 642.918 243.037 643.295C243.687 643.667 244.446 643.852 245.314 643.852C245.877 643.852 246.391 643.773 246.855 643.614C247.319 643.448 247.72 643.203 248.058 642.878C248.396 642.553 248.655 642.152 248.834 641.675L251.648 642.182C251.422 643.01 251.018 643.736 250.435 644.359C249.858 644.976 249.132 645.456 248.257 645.801C247.389 646.139 246.398 646.308 245.284 646.308Z" fill="white"/>
<path d="M404.047 651L398.703 631.364H404.213L407.256 644.557H407.435L410.605 631.364H416.013L419.234 644.48H419.401L422.392 631.364H427.889L422.558 651H416.793L413.418 638.651H413.175L409.8 651H404.047ZM436.394 651.371C435.141 651.371 434.025 651.153 433.044 650.719C432.064 650.276 431.289 649.624 430.718 648.763C430.155 647.893 429.874 646.811 429.874 645.516C429.874 644.425 430.074 643.509 430.475 642.767C430.875 642.026 431.421 641.429 432.111 640.977C432.801 640.526 433.586 640.185 434.463 639.955C435.35 639.724 436.279 639.562 437.25 639.469C438.392 639.349 439.313 639.239 440.012 639.136C440.711 639.026 441.218 638.864 441.533 638.651C441.848 638.437 442.006 638.122 442.006 637.705V637.628C442.006 636.818 441.75 636.192 441.239 635.749C440.736 635.305 440.02 635.084 439.091 635.084C438.111 635.084 437.331 635.301 436.752 635.736C436.172 636.162 435.789 636.699 435.601 637.347L430.564 636.938C430.82 635.744 431.323 634.713 432.073 633.844C432.823 632.966 433.79 632.293 434.975 631.824C436.168 631.347 437.549 631.108 439.117 631.108C440.208 631.108 441.252 631.236 442.249 631.491C443.255 631.747 444.145 632.143 444.921 632.68C445.705 633.217 446.323 633.908 446.775 634.751C447.226 635.587 447.452 636.588 447.452 637.756V651H442.287V648.277H442.134C441.819 648.891 441.397 649.432 440.868 649.901C440.34 650.361 439.705 650.723 438.963 650.987C438.222 651.243 437.365 651.371 436.394 651.371ZM437.953 647.612C438.755 647.612 439.462 647.455 440.076 647.139C440.689 646.815 441.171 646.381 441.52 645.835C441.87 645.29 442.044 644.672 442.044 643.982V641.898C441.874 642.009 441.64 642.111 441.341 642.205C441.051 642.29 440.723 642.371 440.357 642.447C439.99 642.516 439.624 642.58 439.257 642.639C438.891 642.69 438.559 642.737 438.26 642.78C437.621 642.874 437.063 643.023 436.586 643.227C436.108 643.432 435.738 643.709 435.473 644.058C435.209 644.399 435.077 644.825 435.077 645.337C435.077 646.078 435.346 646.645 435.882 647.037C436.428 647.42 437.118 647.612 437.953 647.612ZM462.122 631.364V635.455H450.297V631.364H462.122ZM452.981 626.659H458.427V644.966C458.427 645.469 458.504 645.861 458.657 646.142C458.811 646.415 459.024 646.607 459.297 646.717C459.578 646.828 459.902 646.884 460.268 646.884C460.524 646.884 460.779 646.862 461.035 646.82C461.291 646.768 461.487 646.73 461.623 646.705L462.48 650.757C462.207 650.842 461.824 650.94 461.329 651.051C460.835 651.17 460.234 651.243 459.527 651.268C458.214 651.32 457.064 651.145 456.075 650.744C455.095 650.344 454.332 649.722 453.787 648.878C453.241 648.034 452.973 646.969 452.981 645.682V626.659ZM474.331 651.384C472.319 651.384 470.589 650.957 469.14 650.105C467.7 649.244 466.592 648.051 465.816 646.526C465.049 645 464.666 643.244 464.666 641.259C464.666 639.247 465.054 637.483 465.829 635.966C466.613 634.44 467.725 633.251 469.166 632.399C470.606 631.538 472.319 631.108 474.305 631.108C476.018 631.108 477.518 631.419 478.805 632.041C480.092 632.663 481.11 633.537 481.86 634.662C482.61 635.787 483.024 637.108 483.1 638.625H477.961C477.816 637.645 477.433 636.857 476.811 636.26C476.197 635.655 475.392 635.352 474.395 635.352C473.551 635.352 472.814 635.582 472.183 636.043C471.561 636.494 471.075 637.155 470.725 638.024C470.376 638.893 470.201 639.946 470.201 641.182C470.201 642.435 470.372 643.5 470.713 644.378C471.062 645.256 471.552 645.925 472.183 646.385C472.814 646.845 473.551 647.075 474.395 647.075C475.017 647.075 475.575 646.947 476.069 646.692C476.572 646.436 476.985 646.065 477.309 645.58C477.642 645.085 477.859 644.493 477.961 643.803H483.1C483.015 645.303 482.606 646.624 481.873 647.766C481.149 648.899 480.147 649.786 478.869 650.425C477.591 651.064 476.078 651.384 474.331 651.384ZM492.033 639.648V651H486.587V624.818H491.88V634.828H492.11C492.553 633.669 493.269 632.761 494.258 632.105C495.246 631.44 496.487 631.108 497.978 631.108C499.342 631.108 500.531 631.406 501.545 632.003C502.567 632.591 503.36 633.439 503.923 634.547C504.494 635.646 504.775 636.963 504.766 638.497V651H499.32V639.469C499.329 638.259 499.022 637.317 498.4 636.643C497.786 635.97 496.925 635.634 495.817 635.634C495.076 635.634 494.42 635.791 493.849 636.107C493.286 636.422 492.843 636.882 492.519 637.487C492.204 638.084 492.042 638.804 492.033 639.648ZM533.722 636.963L528.737 637.27C528.651 636.844 528.468 636.46 528.187 636.119C527.906 635.77 527.535 635.493 527.075 635.288C526.623 635.075 526.082 634.969 525.451 634.969C524.607 634.969 523.896 635.148 523.316 635.506C522.737 635.855 522.447 636.324 522.447 636.912C522.447 637.381 522.634 637.777 523.009 638.101C523.384 638.425 524.028 638.685 524.94 638.881L528.494 639.597C530.403 639.989 531.826 640.619 532.763 641.489C533.701 642.358 534.17 643.5 534.17 644.915C534.17 646.202 533.79 647.331 533.032 648.303C532.282 649.274 531.251 650.033 529.938 650.578C528.634 651.115 527.13 651.384 525.425 651.384C522.826 651.384 520.755 650.842 519.212 649.76C517.678 648.669 516.779 647.186 516.515 645.311L521.871 645.03C522.033 645.822 522.425 646.428 523.048 646.845C523.67 647.254 524.467 647.459 525.438 647.459C526.393 647.459 527.16 647.276 527.739 646.909C528.327 646.534 528.626 646.053 528.634 645.464C528.626 644.97 528.417 644.565 528.008 644.25C527.599 643.926 526.968 643.679 526.116 643.509L522.715 642.831C520.798 642.447 519.37 641.783 518.433 640.837C517.504 639.891 517.039 638.685 517.039 637.219C517.039 635.957 517.38 634.871 518.062 633.959C518.752 633.047 519.719 632.344 520.964 631.849C522.217 631.355 523.683 631.108 525.362 631.108C527.842 631.108 529.793 631.632 531.217 632.68C532.648 633.729 533.484 635.156 533.722 636.963ZM537.599 651V631.364H542.879V634.79H543.083C543.441 633.571 544.042 632.651 544.886 632.028C545.73 631.398 546.701 631.082 547.801 631.082C548.074 631.082 548.368 631.099 548.683 631.134C548.998 631.168 549.275 631.214 549.514 631.274V636.107C549.258 636.03 548.904 635.962 548.453 635.902C548.001 635.842 547.588 635.812 547.213 635.812C546.412 635.812 545.696 635.987 545.065 636.337C544.443 636.678 543.949 637.155 543.582 637.768C543.224 638.382 543.045 639.089 543.045 639.891V651H537.599ZM560.288 651.384C558.276 651.384 556.546 650.957 555.097 650.105C553.657 649.244 552.549 648.051 551.773 646.526C551.006 645 550.623 643.244 550.623 641.259C550.623 639.247 551.011 637.483 551.786 635.966C552.57 634.44 553.683 633.251 555.123 632.399C556.563 631.538 558.276 631.108 560.262 631.108C561.975 631.108 563.475 631.419 564.762 632.041C566.049 632.663 567.067 633.537 567.817 634.662C568.567 635.787 568.981 637.108 569.058 638.625H563.918C563.773 637.645 563.39 636.857 562.768 636.26C562.154 635.655 561.349 635.352 560.352 635.352C559.508 635.352 558.771 635.582 558.14 636.043C557.518 636.494 557.032 637.155 556.683 638.024C556.333 638.893 556.158 639.946 556.158 641.182C556.158 642.435 556.329 643.5 556.67 644.378C557.019 645.256 557.509 645.925 558.14 646.385C558.771 646.845 559.508 647.075 560.352 647.075C560.974 647.075 561.532 646.947 562.026 646.692C562.529 646.436 562.942 646.065 563.266 645.58C563.599 645.085 563.816 644.493 563.918 643.803H569.058C568.972 645.303 568.563 646.624 567.83 647.766C567.106 648.899 566.104 649.786 564.826 650.425C563.548 651.064 562.035 651.384 560.288 651.384ZM591.436 631.364V635.455H579.317V631.364H591.436ZM582.091 651V629.945C582.091 628.521 582.368 627.341 582.922 626.403C583.484 625.466 584.251 624.763 585.223 624.294C586.195 623.825 587.298 623.591 588.534 623.591C589.369 623.591 590.132 623.655 590.822 623.783C591.521 623.911 592.041 624.026 592.382 624.128L591.411 628.219C591.197 628.151 590.933 628.087 590.618 628.027C590.311 627.967 589.996 627.938 589.672 627.938C588.871 627.938 588.312 628.125 587.997 628.5C587.682 628.866 587.524 629.382 587.524 630.047V651H582.091ZM602.932 651.384C600.946 651.384 599.229 650.962 597.78 650.118C596.34 649.266 595.228 648.081 594.444 646.564C593.659 645.038 593.267 643.27 593.267 641.259C593.267 639.23 593.659 637.457 594.444 635.94C595.228 634.415 596.34 633.23 597.78 632.386C599.229 631.534 600.946 631.108 602.932 631.108C604.918 631.108 606.631 631.534 608.071 632.386C609.52 633.23 610.637 634.415 611.421 635.94C612.205 637.457 612.597 639.23 612.597 641.259C612.597 643.27 612.205 645.038 611.421 646.564C610.637 648.081 609.52 649.266 608.071 650.118C606.631 650.962 604.918 651.384 602.932 651.384ZM602.958 647.165C603.861 647.165 604.615 646.909 605.221 646.398C605.826 645.878 606.282 645.17 606.588 644.276C606.904 643.381 607.061 642.362 607.061 641.22C607.061 640.078 606.904 639.06 606.588 638.165C606.282 637.27 605.826 636.562 605.221 636.043C604.615 635.523 603.861 635.263 602.958 635.263C602.046 635.263 601.279 635.523 600.657 636.043C600.043 636.562 599.578 637.27 599.263 638.165C598.956 639.06 598.803 640.078 598.803 641.22C598.803 642.362 598.956 643.381 599.263 644.276C599.578 645.17 600.043 645.878 600.657 646.398C601.279 646.909 602.046 647.165 602.958 647.165ZM621.584 624.818V651H616.138V624.818H621.584ZM633.183 651.32C631.691 651.32 630.34 650.936 629.13 650.169C627.928 649.393 626.974 648.256 626.266 646.756C625.567 645.247 625.218 643.398 625.218 641.207C625.218 638.957 625.58 637.087 626.305 635.595C627.029 634.095 627.992 632.974 629.194 632.233C630.404 631.483 631.729 631.108 633.17 631.108C634.269 631.108 635.185 631.295 635.918 631.67C636.66 632.037 637.256 632.497 637.708 633.051C638.168 633.597 638.518 634.134 638.756 634.662H638.923V624.818H644.356V651H638.987V647.855H638.756C638.501 648.401 638.138 648.942 637.67 649.479C637.21 650.007 636.609 650.446 635.867 650.795C635.134 651.145 634.239 651.32 633.183 651.32ZM634.908 646.986C635.786 646.986 636.528 646.747 637.133 646.27C637.746 645.784 638.215 645.107 638.539 644.237C638.871 643.368 639.038 642.349 639.038 641.182C639.038 640.014 638.876 639 638.552 638.139C638.228 637.278 637.759 636.614 637.146 636.145C636.532 635.676 635.786 635.442 634.908 635.442C634.013 635.442 633.259 635.685 632.646 636.17C632.032 636.656 631.567 637.33 631.252 638.19C630.937 639.051 630.779 640.048 630.779 641.182C630.779 642.324 630.937 643.334 631.252 644.212C631.576 645.081 632.04 645.763 632.646 646.257C633.259 646.743 634.013 646.986 634.908 646.986ZM657.782 651.384C655.762 651.384 654.024 650.974 652.566 650.156C651.118 649.33 650.001 648.162 649.217 646.653C648.433 645.136 648.041 643.342 648.041 641.271C648.041 639.251 648.433 637.479 649.217 635.953C650.001 634.428 651.105 633.239 652.528 632.386C653.96 631.534 655.639 631.108 657.565 631.108C658.86 631.108 660.066 631.317 661.183 631.734C662.308 632.143 663.288 632.761 664.123 633.588C664.967 634.415 665.623 635.455 666.092 636.707C666.561 637.952 666.795 639.409 666.795 641.08V642.575H650.214V639.2H661.669C661.669 638.416 661.498 637.722 661.157 637.116C660.816 636.511 660.343 636.038 659.738 635.697C659.142 635.348 658.447 635.173 657.654 635.173C656.828 635.173 656.095 635.365 655.456 635.749C654.825 636.124 654.331 636.631 653.973 637.27C653.615 637.901 653.431 638.604 653.423 639.379V642.588C653.423 643.56 653.602 644.399 653.96 645.107C654.326 645.814 654.842 646.359 655.507 646.743C656.172 647.126 656.96 647.318 657.872 647.318C658.477 647.318 659.031 647.233 659.534 647.062C660.037 646.892 660.467 646.636 660.825 646.295C661.183 645.955 661.456 645.537 661.643 645.043L666.68 645.375C666.424 646.585 665.9 647.642 665.108 648.545C664.324 649.44 663.309 650.139 662.065 650.642C660.829 651.136 659.402 651.384 657.782 651.384ZM670.349 651V631.364H675.629V634.79H675.833C676.191 633.571 676.792 632.651 677.636 632.028C678.48 631.398 679.451 631.082 680.551 631.082C680.824 631.082 681.118 631.099 681.433 631.134C681.748 631.168 682.025 631.214 682.264 631.274V636.107C682.008 636.03 681.654 635.962 681.203 635.902C680.751 635.842 680.338 635.812 679.963 635.812C679.162 635.812 678.446 635.987 677.815 636.337C677.193 636.678 676.699 637.155 676.332 637.768C675.974 638.382 675.795 639.089 675.795 639.891V651H670.349Z" fill="white"/>
<rect x="26" y="26" width="327" height="78" rx="16" fill="#393939"/>
<path d="M66.2045 69.1136L51.1136 76.4318V72.9545L62.25 67.8864L62.1364 68.0795V67.5909L62.25 67.7955L51.1136 62.7159V59.25L66.2045 66.5682V69.1136ZM80.0653 83.5455V59.5455H83.3835V62.375H83.6676C83.8646 62.0114 84.1487 61.5909 84.5199 61.1136C84.8911 60.6364 85.4063 60.2197 86.0653 59.8636C86.7244 59.5 87.5956 59.3182 88.679 59.3182C90.0881 59.3182 91.3456 59.6742 92.4517 60.3864C93.5578 61.0985 94.4252 62.125 95.054 63.4659C95.6903 64.8068 96.0085 66.4205 96.0085 68.3068C96.0085 70.1932 95.6941 71.8106 95.0653 73.1591C94.4366 74.5 93.5729 75.5341 92.4744 76.2614C91.3759 76.9811 90.1222 77.3409 88.7131 77.3409C87.6525 77.3409 86.785 77.1629 86.1108 76.8068C85.4441 76.4508 84.9214 76.0341 84.5426 75.5568C84.1638 75.0795 83.8722 74.6553 83.6676 74.2841H83.4631V83.5455H80.0653ZM83.3949 68.2727C83.3949 69.5 83.5729 70.5758 83.929 71.5C84.285 72.4242 84.8002 73.1477 85.4744 73.6705C86.1487 74.1856 86.9744 74.4432 87.9517 74.4432C88.9669 74.4432 89.8153 74.1742 90.4972 73.6364C91.179 73.0909 91.6941 72.3523 92.0426 71.4205C92.3987 70.4886 92.5767 69.4394 92.5767 68.2727C92.5767 67.1212 92.4025 66.0871 92.054 65.1705C91.7131 64.2538 91.1979 63.5303 90.5085 63C89.8267 62.4697 88.9744 62.2045 87.9517 62.2045C86.9669 62.2045 86.1335 62.4583 85.4517 62.9659C84.7775 63.4735 84.2661 64.1818 83.9176 65.0909C83.5691 66 83.3949 67.0606 83.3949 68.2727ZM99.8153 77V59.5455H103.099V62.3182H103.281C103.599 61.3788 104.16 60.6402 104.963 60.1023C105.774 59.5568 106.69 59.2841 107.713 59.2841C107.925 59.2841 108.175 59.2917 108.463 59.3068C108.759 59.322 108.99 59.3409 109.156 59.3636V62.6136C109.02 62.5758 108.777 62.5341 108.429 62.4886C108.08 62.4356 107.732 62.4091 107.384 62.4091C106.58 62.4091 105.865 62.5795 105.236 62.9205C104.615 63.2538 104.122 63.7197 103.759 64.3182C103.395 64.9091 103.213 65.5833 103.213 66.3409V77H99.8153ZM118.994 77.3523C117.275 77.3523 115.794 76.9848 114.551 76.25C113.316 75.5076 112.362 74.4659 111.688 73.125C111.021 71.7765 110.688 70.197 110.688 68.3864C110.688 66.5985 111.021 65.0227 111.688 63.6591C112.362 62.2955 113.301 61.2311 114.506 60.4659C115.718 59.7008 117.134 59.3182 118.756 59.3182C119.741 59.3182 120.695 59.4811 121.619 59.8068C122.544 60.1326 123.373 60.6439 124.108 61.3409C124.843 62.0379 125.422 62.9432 125.847 64.0568C126.271 65.1629 126.483 66.5076 126.483 68.0909V69.2955H112.608V66.75H123.153C123.153 65.8561 122.972 65.0644 122.608 64.375C122.244 63.678 121.733 63.1288 121.074 62.7273C120.422 62.3258 119.657 62.125 118.778 62.125C117.824 62.125 116.991 62.3598 116.278 62.8295C115.574 63.2917 115.028 63.8977 114.642 64.6477C114.263 65.3902 114.074 66.197 114.074 67.0682V69.0568C114.074 70.2235 114.278 71.2159 114.688 72.0341C115.104 72.8523 115.684 73.4773 116.426 73.9091C117.169 74.3333 118.036 74.5455 119.028 74.5455C119.672 74.5455 120.259 74.4545 120.79 74.2727C121.32 74.0833 121.778 73.803 122.165 73.4318C122.551 73.0606 122.847 72.6023 123.051 72.0568L126.267 72.6364C126.009 73.5833 125.547 74.4129 124.881 75.125C124.222 75.8295 123.392 76.3788 122.392 76.7727C121.4 77.1591 120.267 77.3523 118.994 77.3523ZM130.526 77V53.7273H133.923V62.375H134.128C134.325 62.0114 134.609 61.5909 134.98 61.1136C135.351 60.6364 135.866 60.2197 136.526 59.8636C137.185 59.5 138.056 59.3182 139.139 59.3182C140.548 59.3182 141.806 59.6742 142.912 60.3864C144.018 61.0985 144.885 62.125 145.514 63.4659C146.151 64.8068 146.469 66.4205 146.469 68.3068C146.469 70.1932 146.154 71.8106 145.526 73.1591C144.897 74.5 144.033 75.5341 142.935 76.2614C141.836 76.9811 140.582 77.3409 139.173 77.3409C138.113 77.3409 137.245 77.1629 136.571 76.8068C135.904 76.4508 135.382 76.0341 135.003 75.5568C134.624 75.0795 134.332 74.6553 134.128 74.2841H133.844V77H130.526ZM133.855 68.2727C133.855 69.5 134.033 70.5758 134.389 71.5C134.745 72.4242 135.26 73.1477 135.935 73.6705C136.609 74.1856 137.435 74.4432 138.412 74.4432C139.427 74.4432 140.276 74.1742 140.957 73.6364C141.639 73.0909 142.154 72.3523 142.503 71.4205C142.859 70.4886 143.037 69.4394 143.037 68.2727C143.037 67.1212 142.863 66.0871 142.514 65.1705C142.173 64.2538 141.658 63.5303 140.969 63C140.287 62.4697 139.435 62.2045 138.412 62.2045C137.427 62.2045 136.594 62.4583 135.912 62.9659C135.238 63.4735 134.726 64.1818 134.378 65.0909C134.029 66 133.855 67.0606 133.855 68.2727ZM161.341 69.7614V59.5455H164.75V77H161.409V73.9773H161.227C160.826 74.9091 160.182 75.6856 159.295 76.3068C158.417 76.9205 157.322 77.2273 156.011 77.2273C154.89 77.2273 153.898 76.9811 153.034 76.4886C152.178 75.9886 151.504 75.25 151.011 74.2727C150.527 73.2955 150.284 72.0871 150.284 70.6477V59.5455H153.682V70.2386C153.682 71.428 154.011 72.375 154.67 73.0795C155.33 73.7841 156.186 74.1364 157.239 74.1364C157.875 74.1364 158.508 73.9773 159.136 73.6591C159.773 73.3409 160.299 72.8598 160.716 72.2159C161.14 71.572 161.348 70.7538 161.341 69.7614ZM169.315 77V59.5455H172.713V77H169.315ZM171.031 56.8523C170.44 56.8523 169.933 56.6553 169.509 56.2614C169.092 55.8598 168.884 55.3826 168.884 54.8295C168.884 54.2689 169.092 53.7917 169.509 53.3977C169.933 52.9962 170.44 52.7955 171.031 52.7955C171.622 52.7955 172.126 52.9962 172.543 53.3977C172.967 53.7917 173.179 54.2689 173.179 54.8295C173.179 55.3826 172.967 55.8598 172.543 56.2614C172.126 56.6553 171.622 56.8523 171.031 56.8523ZM180.682 53.7273V77H177.284V53.7273H180.682ZM191.787 77.3409C190.378 77.3409 189.12 76.9811 188.014 76.2614C186.916 75.5341 186.052 74.5 185.423 73.1591C184.802 71.8106 184.491 70.1932 184.491 68.3068C184.491 66.4205 184.806 64.8068 185.435 63.4659C186.071 62.125 186.942 61.0985 188.048 60.3864C189.154 59.6742 190.408 59.3182 191.81 59.3182C192.893 59.3182 193.764 59.5 194.423 59.8636C195.09 60.2197 195.605 60.6364 195.969 61.1136C196.34 61.5909 196.628 62.0114 196.832 62.375H197.037V53.7273H200.435V77H197.116V74.2841H196.832C196.628 74.6553 196.332 75.0795 195.946 75.5568C195.567 76.0341 195.045 76.4508 194.378 76.8068C193.711 77.1629 192.848 77.3409 191.787 77.3409ZM192.537 74.4432C193.514 74.4432 194.34 74.1856 195.014 73.6705C195.696 73.1477 196.211 72.4242 196.56 71.5C196.916 70.5758 197.094 69.5 197.094 68.2727C197.094 67.0606 196.92 66 196.571 65.0909C196.223 64.1818 195.711 63.4735 195.037 62.9659C194.363 62.4583 193.529 62.2045 192.537 62.2045C191.514 62.2045 190.662 62.4697 189.98 63C189.298 63.5303 188.783 64.2538 188.435 65.1705C188.094 66.0871 187.923 67.1212 187.923 68.2727C187.923 69.4394 188.098 70.4886 188.446 71.4205C188.795 72.3523 189.31 73.0909 189.991 73.6364C190.681 74.1742 191.529 74.4432 192.537 74.4432ZM213.753 77V59.5455H217.037V62.3182H217.219C217.537 61.3788 218.098 60.6402 218.901 60.1023C219.711 59.5568 220.628 59.2841 221.651 59.2841C221.863 59.2841 222.113 59.2917 222.401 59.3068C222.696 59.322 222.927 59.3409 223.094 59.3636V62.6136C222.957 62.5758 222.715 62.5341 222.366 62.4886C222.018 62.4356 221.67 62.4091 221.321 62.4091C220.518 62.4091 219.802 62.5795 219.173 62.9205C218.552 63.2538 218.06 63.7197 217.696 64.3182C217.332 64.9091 217.151 65.5833 217.151 66.3409V77H213.753ZM232.932 77.3523C231.212 77.3523 229.731 76.9848 228.489 76.25C227.254 75.5076 226.299 74.4659 225.625 73.125C224.958 71.7765 224.625 70.197 224.625 68.3864C224.625 66.5985 224.958 65.0227 225.625 63.6591C226.299 62.2955 227.239 61.2311 228.443 60.4659C229.655 59.7008 231.072 59.3182 232.693 59.3182C233.678 59.3182 234.633 59.4811 235.557 59.8068C236.481 60.1326 237.311 60.6439 238.045 61.3409C238.78 62.0379 239.36 62.9432 239.784 64.0568C240.208 65.1629 240.42 66.5076 240.42 68.0909V69.2955H226.545V66.75H237.091C237.091 65.8561 236.909 65.0644 236.545 64.375C236.182 63.678 235.67 63.1288 235.011 62.7273C234.36 62.3258 233.595 62.125 232.716 62.125C231.761 62.125 230.928 62.3598 230.216 62.8295C229.511 63.2917 228.966 63.8977 228.58 64.6477C228.201 65.3902 228.011 66.197 228.011 67.0682V69.0568C228.011 70.2235 228.216 71.2159 228.625 72.0341C229.042 72.8523 229.621 73.4773 230.364 73.9091C231.106 74.3333 231.973 74.5455 232.966 74.5455C233.61 74.5455 234.197 74.4545 234.727 74.2727C235.258 74.0833 235.716 73.803 236.102 73.4318C236.489 73.0606 236.784 72.6023 236.989 72.0568L240.205 72.6364C239.947 73.5833 239.485 74.4129 238.818 75.125C238.159 75.8295 237.33 76.3788 236.33 76.7727C235.337 77.1591 234.205 77.3523 232.932 77.3523ZM257.27 63.8068L254.19 64.3523C254.062 63.9583 253.857 63.5833 253.577 63.2273C253.304 62.8712 252.933 62.5795 252.463 62.3523C251.993 62.125 251.406 62.0114 250.702 62.0114C249.74 62.0114 248.937 62.2273 248.293 62.6591C247.649 63.0833 247.327 63.6326 247.327 64.3068C247.327 64.8902 247.543 65.3598 247.974 65.7159C248.406 66.072 249.103 66.3636 250.065 66.5909L252.838 67.2273C254.444 67.5985 255.641 68.1705 256.429 68.9432C257.217 69.7159 257.611 70.7197 257.611 71.9545C257.611 73 257.308 73.9318 256.702 74.75C256.103 75.5606 255.266 76.197 254.19 76.6591C253.122 77.1212 251.884 77.3523 250.474 77.3523C248.52 77.3523 246.925 76.9356 245.69 76.1023C244.455 75.2614 243.698 74.0682 243.418 72.5227L246.702 72.0227C246.906 72.8788 247.327 73.5265 247.963 73.9659C248.599 74.3977 249.429 74.6136 250.452 74.6136C251.565 74.6136 252.455 74.3826 253.122 73.9205C253.789 73.4508 254.122 72.8788 254.122 72.2045C254.122 71.6591 253.918 71.2008 253.509 70.8295C253.107 70.4583 252.49 70.178 251.656 69.9886L248.702 69.3409C247.073 68.9697 245.868 68.3788 245.088 67.5682C244.315 66.7576 243.929 65.7311 243.929 64.4886C243.929 63.4583 244.217 62.5568 244.793 61.7841C245.368 61.0114 246.164 60.4091 247.179 59.9773C248.194 59.5379 249.357 59.3182 250.668 59.3182C252.554 59.3182 254.039 59.7273 255.122 60.5455C256.205 61.3561 256.921 62.4432 257.27 63.8068ZM268.699 77.3523C267.063 77.3523 265.634 76.9773 264.415 76.2273C263.195 75.4773 262.248 74.428 261.574 73.0795C260.9 71.7311 260.562 70.1553 260.562 68.3523C260.562 66.5417 260.9 64.9583 261.574 63.6023C262.248 62.2462 263.195 61.1932 264.415 60.4432C265.634 59.6932 267.063 59.3182 268.699 59.3182C270.335 59.3182 271.763 59.6932 272.983 60.4432C274.203 61.1932 275.15 62.2462 275.824 63.6023C276.498 64.9583 276.835 66.5417 276.835 68.3523C276.835 70.1553 276.498 71.7311 275.824 73.0795C275.15 74.428 274.203 75.4773 272.983 76.2273C271.763 76.9773 270.335 77.3523 268.699 77.3523ZM268.71 74.5C269.771 74.5 270.65 74.2197 271.347 73.6591C272.044 73.0985 272.559 72.3523 272.892 71.4205C273.233 70.4886 273.403 69.4621 273.403 68.3409C273.403 67.2273 273.233 66.2045 272.892 65.2727C272.559 64.3333 272.044 63.5795 271.347 63.0114C270.65 62.4432 269.771 62.1591 268.71 62.1591C267.642 62.1591 266.756 62.4432 266.051 63.0114C265.354 63.5795 264.835 64.3333 264.494 65.2727C264.161 66.2045 263.994 67.2273 263.994 68.3409C263.994 69.4621 264.161 70.4886 264.494 71.4205C264.835 72.3523 265.354 73.0985 266.051 73.6591C266.756 74.2197 267.642 74.5 268.71 74.5ZM284.026 53.7273V77H280.628V53.7273H284.026ZM303.528 59.5455L297.199 77H293.562L287.222 59.5455H290.869L295.29 72.9773H295.472L299.881 59.5455H303.528ZM313.651 77.3523C311.931 77.3523 310.45 76.9848 309.207 76.25C307.973 75.5076 307.018 74.4659 306.344 73.125C305.677 71.7765 305.344 70.197 305.344 68.3864C305.344 66.5985 305.677 65.0227 306.344 63.6591C307.018 62.2955 307.957 61.2311 309.162 60.4659C310.374 59.7008 311.791 59.3182 313.412 59.3182C314.397 59.3182 315.351 59.4811 316.276 59.8068C317.2 60.1326 318.029 60.6439 318.764 61.3409C319.499 62.0379 320.079 62.9432 320.503 64.0568C320.927 65.1629 321.139 66.5076 321.139 68.0909V69.2955H307.264V66.75H317.81C317.81 65.8561 317.628 65.0644 317.264 64.375C316.901 63.678 316.389 63.1288 315.73 62.7273C315.079 62.3258 314.313 62.125 313.435 62.125C312.48 62.125 311.647 62.3598 310.935 62.8295C310.23 63.2917 309.685 63.8977 309.298 64.6477C308.92 65.3902 308.73 66.197 308.73 67.0682V69.0568C308.73 70.2235 308.935 71.2159 309.344 72.0341C309.76 72.8523 310.34 73.4773 311.082 73.9091C311.825 74.3333 312.692 74.5455 313.685 74.5455C314.329 74.5455 314.916 74.4545 315.446 74.2727C315.976 74.0833 316.435 73.803 316.821 73.4318C317.207 73.0606 317.503 72.6023 317.707 72.0568L320.923 72.6364C320.666 73.5833 320.204 74.4129 319.537 75.125C318.878 75.8295 318.048 76.3788 317.048 76.7727C316.056 77.1591 314.923 77.3523 313.651 77.3523Z" fill="white"/>
</svg>
