<svg width="1116" height="439" viewBox="0 0 1116 439" fill="none" xmlns="http://www.w3.org/2000/svg">
<rect width="1116" height="439" rx="24" fill="#101010"/>
<path d="M228.978 252.685L206.597 291.16C204.856 294.154 202.362 296.639 199.364 298.365C196.367 300.092 192.971 301 189.514 301H65.914C60.1899 301 56.6234 294.773 59.5075 289.815L81.8886 251.34C83.6303 248.346 86.1242 245.861 89.1217 244.135C92.1192 242.408 95.5155 241.5 98.9722 241.5H222.572C228.296 241.5 231.863 247.727 228.978 252.685ZM98.9722 231.583H200.333V216.708C200.333 208.493 193.692 201.833 185.5 201.833H136.056L116.278 182H66.8333C58.641 182 52 188.66 52 196.875V283.04L73.3467 246.343C78.6425 237.239 88.4619 231.583 98.9722 231.583Z" fill="#4E993B"/>
<path d="M1050.98 219.685L1028.6 258.16C1026.86 261.154 1024.36 263.639 1021.36 265.365C1018.37 267.092 1014.97 268 1011.51 268H887.914C882.19 268 878.623 261.773 881.508 256.815L903.889 218.34C905.63 215.346 908.124 212.861 911.122 211.135C914.119 209.408 917.516 208.5 920.972 208.5H1044.57C1050.3 208.5 1053.86 214.727 1050.98 219.685ZM920.972 198.583H1022.33V183.708C1022.33 175.493 1015.69 168.833 1007.5 168.833H958.056L938.278 149H888.833C880.641 149 874 155.66 874 163.875V250.04L895.347 213.343C900.643 204.239 910.462 198.583 920.972 198.583Z" fill="#99683B"/>
<path d="M110.479 337.348C110.376 336.317 109.938 335.516 109.162 334.945C108.386 334.374 107.334 334.088 106.004 334.088C105.101 334.088 104.338 334.216 103.716 334.472C103.094 334.719 102.616 335.064 102.284 335.507C101.96 335.95 101.798 336.453 101.798 337.016C101.781 337.484 101.879 337.893 102.092 338.243C102.314 338.592 102.616 338.895 103 339.151C103.384 339.398 103.827 339.615 104.33 339.803C104.832 339.982 105.369 340.135 105.94 340.263L108.293 340.825C109.435 341.081 110.483 341.422 111.438 341.848C112.392 342.274 113.219 342.798 113.918 343.42C114.616 344.043 115.158 344.776 115.541 345.619C115.933 346.463 116.134 347.43 116.142 348.521C116.134 350.124 115.724 351.513 114.915 352.689C114.114 353.857 112.955 354.764 111.438 355.412C109.929 356.051 108.109 356.371 105.979 356.371C103.865 356.371 102.024 356.047 100.456 355.399C98.8963 354.751 97.6776 353.793 96.7997 352.523C95.9304 351.244 95.4744 349.663 95.4318 347.78H100.788C100.848 348.658 101.099 349.391 101.543 349.979C101.994 350.558 102.595 350.997 103.345 351.295C104.104 351.585 104.96 351.73 105.915 351.73C106.852 351.73 107.666 351.594 108.357 351.321C109.055 351.048 109.597 350.669 109.98 350.183C110.364 349.697 110.555 349.139 110.555 348.509C110.555 347.92 110.381 347.426 110.031 347.026C109.69 346.625 109.188 346.284 108.523 346.003C107.866 345.722 107.061 345.466 106.107 345.236L103.256 344.52C101.048 343.983 99.3054 343.143 98.027 342.001C96.7486 340.859 96.1136 339.321 96.1222 337.386C96.1136 335.801 96.5355 334.416 97.3878 333.232C98.2486 332.047 99.429 331.122 100.929 330.457C102.429 329.793 104.134 329.46 106.043 329.46C107.986 329.46 109.682 329.793 111.131 330.457C112.588 331.122 113.722 332.047 114.531 333.232C115.341 334.416 115.759 335.788 115.784 337.348H110.479ZM119.865 356V329.818H130.195C132.172 329.818 133.86 330.172 135.257 330.879C136.664 331.578 137.733 332.571 138.466 333.858C139.208 335.136 139.578 336.641 139.578 338.371C139.578 340.109 139.203 341.605 138.453 342.858C137.703 344.102 136.617 345.057 135.194 345.722C133.779 346.386 132.066 346.719 130.054 346.719H123.138V342.27H129.159C130.216 342.27 131.094 342.125 131.793 341.835C132.492 341.545 133.012 341.111 133.353 340.531C133.702 339.952 133.877 339.232 133.877 338.371C133.877 337.501 133.702 336.768 133.353 336.172C133.012 335.575 132.488 335.124 131.78 334.817C131.081 334.501 130.199 334.344 129.134 334.344H125.401V356H119.865ZM134.005 344.085L140.512 356H134.401L128.034 344.085H134.005ZM166.591 338.984H160.992C160.89 338.26 160.681 337.616 160.365 337.054C160.05 336.483 159.645 335.997 159.151 335.597C158.657 335.196 158.086 334.889 157.438 334.676C156.799 334.463 156.104 334.357 155.354 334.357C153.999 334.357 152.819 334.693 151.813 335.366C150.807 336.031 150.027 337.003 149.473 338.281C148.919 339.551 148.642 341.094 148.642 342.909C148.642 344.776 148.919 346.344 149.473 347.614C150.036 348.884 150.82 349.842 151.826 350.49C152.831 351.138 153.995 351.462 155.316 351.462C156.057 351.462 156.743 351.364 157.374 351.168C158.013 350.972 158.58 350.686 159.074 350.311C159.569 349.928 159.978 349.463 160.301 348.918C160.634 348.372 160.864 347.75 160.992 347.051L166.591 347.077C166.446 348.278 166.084 349.438 165.505 350.554C164.934 351.662 164.162 352.655 163.191 353.533C162.228 354.402 161.077 355.092 159.739 355.604C158.409 356.107 156.905 356.358 155.226 356.358C152.891 356.358 150.803 355.83 148.962 354.773C147.13 353.716 145.681 352.186 144.615 350.183C143.559 348.18 143.03 345.756 143.03 342.909C143.03 340.054 143.567 337.625 144.641 335.622C145.715 333.619 147.172 332.094 149.013 331.045C150.854 329.989 152.925 329.46 155.226 329.46C156.743 329.46 158.15 329.673 159.445 330.099C160.749 330.526 161.904 331.148 162.909 331.966C163.915 332.776 164.733 333.768 165.364 334.945C166.003 336.121 166.412 337.467 166.591 338.984Z" fill="white"/>
<path d="M791.761 326.295C791.011 326.295 790.367 326.03 789.83 325.5C789.299 324.962 789.034 324.318 789.034 323.568C789.034 322.826 789.299 322.189 789.83 321.659C790.367 321.129 791.011 320.864 791.761 320.864C792.489 320.864 793.125 321.129 793.67 321.659C794.216 322.189 794.489 322.826 794.489 323.568C794.489 324.068 794.36 324.527 794.102 324.943C793.852 325.352 793.523 325.682 793.114 325.932C792.705 326.174 792.254 326.295 791.761 326.295ZM798.463 332.545V308.545H803.236V311.477H803.452C803.664 311.008 803.971 310.53 804.372 310.045C804.781 309.553 805.312 309.144 805.963 308.818C806.622 308.485 807.44 308.318 808.418 308.318C809.69 308.318 810.865 308.652 811.94 309.318C813.016 309.977 813.876 310.973 814.52 312.307C815.164 313.633 815.486 315.295 815.486 317.295C815.486 319.242 815.171 320.886 814.543 322.227C813.921 323.561 813.073 324.572 811.997 325.261C810.929 325.943 809.732 326.284 808.406 326.284C807.467 326.284 806.668 326.129 806.009 325.818C805.357 325.508 804.823 325.117 804.406 324.648C803.99 324.17 803.671 323.689 803.452 323.205H803.304V332.545H798.463ZM803.202 317.273C803.202 318.311 803.346 319.216 803.634 319.989C803.921 320.761 804.338 321.364 804.884 321.795C805.429 322.22 806.092 322.432 806.872 322.432C807.66 322.432 808.327 322.216 808.872 321.784C809.418 321.345 809.83 320.739 810.111 319.966C810.399 319.186 810.543 318.288 810.543 317.273C810.543 316.265 810.402 315.379 810.122 314.614C809.842 313.848 809.429 313.25 808.884 312.818C808.338 312.386 807.668 312.17 806.872 312.17C806.084 312.17 805.418 312.379 804.872 312.795C804.334 313.212 803.921 313.803 803.634 314.568C803.346 315.333 803.202 316.235 803.202 317.273ZM818.713 326V308.545H823.406V311.591H823.588C823.906 310.508 824.44 309.689 825.19 309.136C825.94 308.576 826.804 308.295 827.781 308.295C828.024 308.295 828.285 308.311 828.565 308.341C828.846 308.371 829.092 308.413 829.304 308.466V312.761C829.077 312.693 828.762 312.633 828.361 312.58C827.959 312.527 827.592 312.5 827.259 312.5C826.546 312.5 825.91 312.655 825.349 312.966C824.796 313.269 824.357 313.693 824.031 314.239C823.713 314.784 823.554 315.413 823.554 316.125V326H818.713ZM838.949 326.341C837.153 326.341 835.608 325.977 834.312 325.25C833.025 324.515 832.032 323.477 831.335 322.136C830.638 320.788 830.29 319.193 830.29 317.352C830.29 315.557 830.638 313.981 831.335 312.625C832.032 311.269 833.013 310.212 834.278 309.455C835.551 308.697 837.044 308.318 838.756 308.318C839.907 308.318 840.979 308.504 841.972 308.875C842.972 309.239 843.843 309.788 844.585 310.523C845.335 311.258 845.919 312.182 846.335 313.295C846.752 314.402 846.96 315.697 846.96 317.182V318.511H832.222V315.511H842.403C842.403 314.814 842.252 314.197 841.949 313.659C841.646 313.121 841.225 312.701 840.688 312.398C840.157 312.087 839.54 311.932 838.835 311.932C838.1 311.932 837.449 312.102 836.881 312.443C836.32 312.777 835.881 313.227 835.562 313.795C835.244 314.356 835.081 314.981 835.074 315.67V318.523C835.074 319.386 835.233 320.133 835.551 320.761C835.877 321.39 836.335 321.875 836.926 322.216C837.517 322.557 838.218 322.727 839.028 322.727C839.566 322.727 840.059 322.652 840.506 322.5C840.953 322.348 841.335 322.121 841.653 321.818C841.972 321.515 842.214 321.144 842.381 320.705L846.858 321C846.631 322.076 846.165 323.015 845.46 323.818C844.763 324.614 843.862 325.235 842.756 325.682C841.657 326.121 840.388 326.341 838.949 326.341ZM850.21 326V302.727H855.051V311.477H855.199C855.411 311.008 855.718 310.53 856.119 310.045C856.528 309.553 857.059 309.144 857.71 308.818C858.369 308.485 859.188 308.318 860.165 308.318C861.438 308.318 862.612 308.652 863.688 309.318C864.763 309.977 865.623 310.973 866.267 312.307C866.911 313.633 867.233 315.295 867.233 317.295C867.233 319.242 866.919 320.886 866.29 322.227C865.669 323.561 864.82 324.572 863.744 325.261C862.676 325.943 861.479 326.284 860.153 326.284C859.214 326.284 858.415 326.129 857.756 325.818C857.104 325.508 856.57 325.117 856.153 324.648C855.737 324.17 855.419 323.689 855.199 323.205H854.983V326H850.21ZM854.949 317.273C854.949 318.311 855.093 319.216 855.381 319.989C855.669 320.761 856.085 321.364 856.631 321.795C857.176 322.22 857.839 322.432 858.619 322.432C859.407 322.432 860.074 322.216 860.619 321.784C861.165 321.345 861.578 320.739 861.858 319.966C862.146 319.186 862.29 318.288 862.29 317.273C862.29 316.265 862.15 315.379 861.869 314.614C861.589 313.848 861.176 313.25 860.631 312.818C860.085 312.386 859.415 312.17 858.619 312.17C857.831 312.17 857.165 312.379 856.619 312.795C856.081 313.212 855.669 313.803 855.381 314.568C855.093 315.333 854.949 316.235 854.949 317.273ZM881.656 318.568V308.545H886.497V326H881.849V322.83H881.668C881.274 323.852 880.618 324.674 879.702 325.295C878.793 325.917 877.683 326.227 876.372 326.227C875.205 326.227 874.179 325.962 873.293 325.432C872.406 324.902 871.713 324.148 871.213 323.17C870.721 322.193 870.471 321.023 870.463 319.659V308.545H875.304V318.795C875.312 319.826 875.588 320.64 876.134 321.239C876.679 321.837 877.41 322.136 878.327 322.136C878.91 322.136 879.455 322.004 879.963 321.739C880.471 321.466 880.88 321.064 881.19 320.534C881.509 320.004 881.664 319.348 881.656 318.568ZM890.369 326V308.545H895.21V326H890.369ZM892.801 306.295C892.081 306.295 891.464 306.057 890.949 305.58C890.441 305.095 890.188 304.515 890.188 303.841C890.188 303.174 890.441 302.602 890.949 302.125C891.464 301.64 892.081 301.398 892.801 301.398C893.521 301.398 894.134 301.64 894.642 302.125C895.157 302.602 895.415 303.174 895.415 303.841C895.415 304.515 895.157 305.095 894.642 305.58C894.134 306.057 893.521 306.295 892.801 306.295ZM903.929 302.727V326H899.088V302.727H903.929ZM914.239 326.284C912.913 326.284 911.712 325.943 910.636 325.261C909.568 324.572 908.72 323.561 908.091 322.227C907.47 320.886 907.159 319.242 907.159 317.295C907.159 315.295 907.481 313.633 908.125 312.307C908.769 310.973 909.625 309.977 910.693 309.318C911.769 308.652 912.947 308.318 914.227 308.318C915.205 308.318 916.019 308.485 916.67 308.818C917.33 309.144 917.86 309.553 918.261 310.045C918.67 310.53 918.981 311.008 919.193 311.477H919.341V302.727H924.17V326H919.398V323.205H919.193C918.966 323.689 918.644 324.17 918.227 324.648C917.818 325.117 917.284 325.508 916.625 325.818C915.973 326.129 915.178 326.284 914.239 326.284ZM915.773 322.432C916.553 322.432 917.212 322.22 917.75 321.795C918.295 321.364 918.712 320.761 919 319.989C919.295 319.216 919.443 318.311 919.443 317.273C919.443 316.235 919.299 315.333 919.011 314.568C918.723 313.803 918.307 313.212 917.761 312.795C917.216 312.379 916.553 312.17 915.773 312.17C914.977 312.17 914.307 312.386 913.761 312.818C913.216 313.25 912.803 313.848 912.523 314.614C912.242 315.379 912.102 316.265 912.102 317.273C912.102 318.288 912.242 319.186 912.523 319.966C912.811 320.739 913.223 321.345 913.761 321.784C914.307 322.216 914.977 322.432 915.773 322.432ZM936.105 326.341C934.31 326.341 932.764 325.977 931.469 325.25C930.181 324.515 929.188 323.477 928.491 322.136C927.795 320.788 927.446 319.193 927.446 317.352C927.446 315.557 927.795 313.981 928.491 312.625C929.188 311.269 930.17 310.212 931.435 309.455C932.707 308.697 934.2 308.318 935.912 308.318C937.063 308.318 938.135 308.504 939.128 308.875C940.128 309.239 940.999 309.788 941.741 310.523C942.491 311.258 943.075 312.182 943.491 313.295C943.908 314.402 944.116 315.697 944.116 317.182V318.511H929.378V315.511H939.56C939.56 314.814 939.408 314.197 939.105 313.659C938.802 313.121 938.382 312.701 937.844 312.398C937.313 312.087 936.696 311.932 935.991 311.932C935.257 311.932 934.605 312.102 934.037 312.443C933.476 312.777 933.037 313.227 932.719 313.795C932.401 314.356 932.238 314.981 932.23 315.67V318.523C932.23 319.386 932.389 320.133 932.707 320.761C933.033 321.39 933.491 321.875 934.082 322.216C934.673 322.557 935.374 322.727 936.185 322.727C936.723 322.727 937.215 322.652 937.662 322.5C938.109 322.348 938.491 322.121 938.81 321.818C939.128 321.515 939.37 321.144 939.537 320.705L944.014 321C943.787 322.076 943.321 323.015 942.616 323.818C941.92 324.614 941.018 325.235 939.912 325.682C938.813 326.121 937.545 326.341 936.105 326.341ZM947.276 326V308.545H951.969V311.591H952.151C952.469 310.508 953.003 309.689 953.753 309.136C954.503 308.576 955.366 308.295 956.344 308.295C956.586 308.295 956.848 308.311 957.128 308.341C957.408 308.371 957.654 308.413 957.866 308.466V312.761C957.639 312.693 957.325 312.633 956.923 312.58C956.522 312.527 956.154 312.5 955.821 312.5C955.109 312.5 954.473 312.655 953.912 312.966C953.359 313.269 952.92 313.693 952.594 314.239C952.276 314.784 952.116 315.413 952.116 316.125V326H947.276ZM970.713 314.523V318.364H960.099V314.523H970.713ZM989.361 313.523L984.929 313.795C984.853 313.417 984.69 313.076 984.44 312.773C984.19 312.462 983.861 312.216 983.452 312.034C983.05 311.845 982.569 311.75 982.009 311.75C981.259 311.75 980.626 311.909 980.111 312.227C979.596 312.538 979.338 312.955 979.338 313.477C979.338 313.894 979.505 314.246 979.838 314.534C980.171 314.822 980.743 315.053 981.554 315.227L984.713 315.864C986.41 316.212 987.675 316.773 988.509 317.545C989.342 318.318 989.759 319.333 989.759 320.591C989.759 321.735 989.421 322.739 988.747 323.602C988.08 324.466 987.164 325.14 985.997 325.625C984.838 326.102 983.501 326.341 981.986 326.341C979.675 326.341 977.834 325.86 976.463 324.898C975.099 323.928 974.3 322.61 974.065 320.943L978.827 320.693C978.971 321.398 979.319 321.936 979.872 322.307C980.425 322.67 981.134 322.852 981.997 322.852C982.846 322.852 983.527 322.689 984.043 322.364C984.565 322.03 984.83 321.602 984.838 321.08C984.83 320.64 984.645 320.28 984.281 320C983.918 319.712 983.357 319.492 982.599 319.341L979.577 318.739C977.872 318.398 976.603 317.807 975.77 316.966C974.944 316.125 974.531 315.053 974.531 313.75C974.531 312.629 974.834 311.663 975.44 310.852C976.054 310.042 976.914 309.417 978.02 308.977C979.134 308.538 980.437 308.318 981.929 308.318C984.134 308.318 985.868 308.784 987.134 309.716C988.406 310.648 989.149 311.917 989.361 313.523ZM1002.09 308.545V312.182H991.58V308.545H1002.09ZM993.966 304.364H998.807V320.636C998.807 321.083 998.875 321.432 999.011 321.682C999.148 321.924 999.337 322.095 999.58 322.193C999.83 322.292 1000.12 322.341 1000.44 322.341C1000.67 322.341 1000.9 322.322 1001.12 322.284C1001.35 322.239 1001.53 322.205 1001.65 322.182L1002.41 325.784C1002.17 325.86 1001.83 325.947 1001.39 326.045C1000.95 326.152 1000.41 326.216 999.784 326.239C998.617 326.284 997.595 326.129 996.716 325.773C995.845 325.417 995.167 324.864 994.682 324.114C994.197 323.364 993.958 322.417 993.966 321.273V304.364ZM1012.94 326.341C1011.18 326.341 1009.65 325.966 1008.36 325.216C1007.08 324.458 1006.09 323.405 1005.4 322.057C1004.7 320.701 1004.35 319.129 1004.35 317.341C1004.35 315.538 1004.7 313.962 1005.4 312.614C1006.09 311.258 1007.08 310.205 1008.36 309.455C1009.65 308.697 1011.18 308.318 1012.94 308.318C1014.71 308.318 1016.23 308.697 1017.51 309.455C1018.8 310.205 1019.79 311.258 1020.49 312.614C1021.19 313.962 1021.53 315.538 1021.53 317.341C1021.53 319.129 1021.19 320.701 1020.49 322.057C1019.79 323.405 1018.8 324.458 1017.51 325.216C1016.23 325.966 1014.71 326.341 1012.94 326.341ZM1012.97 322.591C1013.77 322.591 1014.44 322.364 1014.98 321.909C1015.52 321.447 1015.92 320.818 1016.19 320.023C1016.47 319.227 1016.61 318.322 1016.61 317.307C1016.61 316.292 1016.47 315.386 1016.19 314.591C1015.92 313.795 1015.52 313.167 1014.98 312.705C1014.44 312.242 1013.77 312.011 1012.97 312.011C1012.16 312.011 1011.47 312.242 1010.92 312.705C1010.38 313.167 1009.96 313.795 1009.68 314.591C1009.41 315.386 1009.27 316.292 1009.27 317.307C1009.27 318.322 1009.41 319.227 1009.68 320.023C1009.96 320.818 1010.38 321.447 1010.92 321.909C1011.47 322.364 1012.16 322.591 1012.97 322.591ZM1024.68 326V308.545H1029.38V311.591H1029.56C1029.88 310.508 1030.41 309.689 1031.16 309.136C1031.91 308.576 1032.77 308.295 1033.75 308.295C1033.99 308.295 1034.25 308.311 1034.53 308.341C1034.81 308.371 1035.06 308.413 1035.27 308.466V312.761C1035.05 312.693 1034.73 312.633 1034.33 312.58C1033.93 312.527 1033.56 312.5 1033.23 312.5C1032.52 312.5 1031.88 312.655 1031.32 312.966C1030.77 313.269 1030.33 313.693 1030 314.239C1029.68 314.784 1029.52 315.413 1029.52 316.125V326H1024.68ZM1042.25 326.33C1041.14 326.33 1040.15 326.136 1039.28 325.75C1038.4 325.356 1037.71 324.777 1037.21 324.011C1036.71 323.239 1036.46 322.277 1036.46 321.125C1036.46 320.155 1036.64 319.341 1036.99 318.682C1037.35 318.023 1037.83 317.492 1038.45 317.091C1039.06 316.689 1039.76 316.386 1040.54 316.182C1041.32 315.977 1042.15 315.833 1043.01 315.75C1044.03 315.644 1044.85 315.545 1045.47 315.455C1046.09 315.356 1046.54 315.212 1046.82 315.023C1047.1 314.833 1047.24 314.553 1047.24 314.182V314.114C1047.24 313.394 1047.01 312.837 1046.56 312.443C1046.11 312.049 1045.48 311.852 1044.65 311.852C1043.78 311.852 1043.09 312.045 1042.57 312.432C1042.06 312.811 1041.71 313.288 1041.55 313.864L1037.07 313.5C1037.3 312.439 1037.75 311.523 1038.41 310.75C1039.08 309.97 1039.94 309.371 1040.99 308.955C1042.05 308.53 1043.28 308.318 1044.67 308.318C1045.64 308.318 1046.57 308.432 1047.46 308.659C1048.35 308.886 1049.14 309.239 1049.83 309.716C1050.53 310.193 1051.08 310.807 1051.48 311.557C1051.88 312.299 1052.08 313.189 1052.08 314.227V326H1047.49V323.58H1047.36C1047.07 324.125 1046.7 324.606 1046.23 325.023C1045.76 325.432 1045.2 325.754 1044.54 325.989C1043.88 326.216 1043.12 326.33 1042.25 326.33ZM1043.64 322.989C1044.35 322.989 1044.98 322.848 1045.53 322.568C1046.07 322.28 1046.5 321.894 1046.81 321.409C1047.12 320.924 1047.28 320.375 1047.28 319.761V317.909C1047.12 318.008 1046.92 318.098 1046.65 318.182C1046.39 318.258 1046.1 318.33 1045.78 318.398C1045.45 318.458 1045.12 318.515 1044.8 318.568C1044.47 318.614 1044.18 318.655 1043.91 318.693C1043.34 318.777 1042.85 318.909 1042.42 319.091C1042 319.273 1041.67 319.519 1041.43 319.83C1041.2 320.133 1041.08 320.511 1041.08 320.966C1041.08 321.625 1041.32 322.129 1041.8 322.477C1042.28 322.818 1042.9 322.989 1043.64 322.989ZM1063.7 332.909C1062.13 332.909 1060.79 332.693 1059.67 332.261C1058.55 331.837 1057.67 331.258 1057.01 330.523C1056.35 329.788 1055.92 328.962 1055.72 328.045L1060.2 327.443C1060.34 327.792 1060.55 328.117 1060.85 328.42C1061.14 328.723 1061.54 328.966 1062.02 329.148C1062.51 329.337 1063.11 329.432 1063.82 329.432C1064.87 329.432 1065.74 329.174 1066.42 328.659C1067.11 328.152 1067.45 327.299 1067.45 326.102V322.909H1067.25C1067.04 323.394 1066.72 323.852 1066.29 324.284C1065.87 324.716 1065.32 325.068 1064.66 325.341C1063.99 325.614 1063.19 325.75 1062.27 325.75C1060.96 325.75 1059.77 325.447 1058.69 324.841C1057.62 324.227 1056.77 323.292 1056.13 322.034C1055.5 320.769 1055.19 319.17 1055.19 317.239C1055.19 315.261 1055.51 313.61 1056.16 312.284C1056.8 310.958 1057.66 309.966 1058.72 309.307C1059.8 308.648 1060.98 308.318 1062.26 308.318C1063.24 308.318 1064.05 308.485 1064.71 308.818C1065.37 309.144 1065.9 309.553 1066.3 310.045C1066.71 310.53 1067.03 311.008 1067.25 311.477H1067.43V308.545H1072.24V326.17C1072.24 327.655 1071.87 328.898 1071.14 329.898C1070.42 330.898 1069.41 331.648 1068.12 332.148C1066.84 332.655 1065.37 332.909 1063.7 332.909ZM1063.8 322.114C1064.58 322.114 1065.24 321.92 1065.78 321.534C1066.33 321.14 1066.74 320.58 1067.03 319.852C1067.33 319.117 1067.47 318.239 1067.47 317.216C1067.47 316.193 1067.33 315.307 1067.04 314.557C1066.75 313.799 1066.34 313.212 1065.79 312.795C1065.25 312.379 1064.58 312.17 1063.8 312.17C1063.01 312.17 1062.34 312.386 1061.79 312.818C1061.25 313.242 1060.83 313.833 1060.55 314.591C1060.27 315.348 1060.13 316.223 1060.13 317.216C1060.13 318.223 1060.27 319.095 1060.55 319.83C1060.84 320.557 1061.25 321.121 1061.79 321.523C1062.34 321.917 1063.01 322.114 1063.8 322.114ZM1084.04 326.341C1082.25 326.341 1080.7 325.977 1079.41 325.25C1078.12 324.515 1077.13 323.477 1076.43 322.136C1075.73 320.788 1075.38 319.193 1075.38 317.352C1075.38 315.557 1075.73 313.981 1076.43 312.625C1077.13 311.269 1078.11 310.212 1079.37 309.455C1080.64 308.697 1082.14 308.318 1083.85 308.318C1085 308.318 1086.07 308.504 1087.07 308.875C1088.07 309.239 1088.94 309.788 1089.68 310.523C1090.43 311.258 1091.01 312.182 1091.43 313.295C1091.85 314.402 1092.05 315.697 1092.05 317.182V318.511H1077.32V315.511H1087.5C1087.5 314.814 1087.35 314.197 1087.04 313.659C1086.74 313.121 1086.32 312.701 1085.78 312.398C1085.25 312.087 1084.63 311.932 1083.93 311.932C1083.19 311.932 1082.54 312.102 1081.97 312.443C1081.41 312.777 1080.97 313.227 1080.66 313.795C1080.34 314.356 1080.18 314.981 1080.17 315.67V318.523C1080.17 319.386 1080.33 320.133 1080.64 320.761C1080.97 321.39 1081.43 321.875 1082.02 322.216C1082.61 322.557 1083.31 322.727 1084.12 322.727C1084.66 322.727 1085.15 322.652 1085.6 322.5C1086.05 322.348 1086.43 322.121 1086.75 321.818C1087.07 321.515 1087.31 321.144 1087.47 320.705L1091.95 321C1091.72 322.076 1091.26 323.015 1090.55 323.818C1089.86 324.614 1088.96 325.235 1087.85 325.682C1086.75 326.121 1085.48 326.341 1084.04 326.341Z" fill="white"/>
<path d="M350.857 221.915L350.767 224.413L350.857 221.915ZM248.399 228.074C247.28 227.265 247.028 225.703 247.836 224.583L261.008 206.342C261.817 205.223 263.379 204.971 264.499 205.779C265.618 206.587 265.87 208.15 265.062 209.269L253.353 225.484L269.567 237.193C270.687 238.001 270.939 239.564 270.131 240.683C269.322 241.802 267.76 242.054 266.64 241.246L248.399 228.074ZM453.24 233.202C452.697 235.643 452.697 235.643 452.697 235.643C452.697 235.643 452.697 235.643 452.696 235.643C452.696 235.642 452.694 235.642 452.692 235.642C452.688 235.641 452.681 235.639 452.672 235.637C452.654 235.633 452.626 235.627 452.589 235.619C452.513 235.602 452.399 235.578 452.245 235.545C451.939 235.479 451.479 235.382 450.869 235.258C449.649 235.008 447.833 234.648 445.457 234.209C440.707 233.33 433.723 232.132 424.815 230.865C406.997 228.331 381.49 225.518 350.767 224.413L350.947 219.417C381.872 220.529 407.556 223.36 425.519 225.915C434.501 227.192 441.553 228.401 446.367 229.292C448.774 229.738 450.621 230.104 451.87 230.359C452.495 230.487 452.97 230.587 453.29 230.655C453.451 230.689 453.572 230.716 453.655 230.734C453.696 230.743 453.727 230.75 453.749 230.754C453.76 230.757 453.768 230.759 453.774 230.76C453.777 230.761 453.779 230.761 453.781 230.761C453.782 230.762 453.782 230.762 453.783 230.762C453.783 230.762 453.784 230.762 453.24 233.202ZM350.767 224.413C320.047 223.309 294.891 224.339 277.428 225.643C268.697 226.295 261.89 227.015 257.273 227.572C254.964 227.85 253.204 228.087 252.024 228.254C251.434 228.337 250.99 228.403 250.694 228.448C250.547 228.47 250.436 228.487 250.364 228.499C250.328 228.504 250.301 228.509 250.284 228.511C250.275 228.513 250.269 228.514 250.265 228.514C250.263 228.515 250.262 228.515 250.261 228.515C250.261 228.515 250.261 228.515 250.261 228.515C250.261 228.515 250.261 228.515 249.863 226.047C249.464 223.579 249.465 223.579 249.466 223.579C249.466 223.579 249.467 223.579 249.468 223.578C249.469 223.578 249.472 223.578 249.475 223.577C249.48 223.576 249.489 223.575 249.499 223.573C249.52 223.57 249.551 223.565 249.591 223.559C249.671 223.546 249.789 223.528 249.945 223.504C250.256 223.457 250.717 223.389 251.324 223.303C252.536 223.132 254.331 222.89 256.675 222.608C261.362 222.043 268.244 221.315 277.055 220.657C294.677 219.341 320.019 218.305 350.947 219.417L350.767 224.413Z" fill="white"/>
<path d="M742.077 193.893L742.289 196.384L742.289 196.384L742.077 193.893ZM640.659 216.33C639.395 215.773 638.823 214.297 639.38 213.034L648.456 192.446C649.013 191.182 650.489 190.61 651.752 191.167C653.015 191.724 653.588 193.199 653.031 194.463L644.963 212.763L663.264 220.831C664.527 221.388 665.1 222.864 664.543 224.127C663.986 225.39 662.51 225.963 661.247 225.406L640.659 216.33ZM846.396 196.425C845.942 198.883 845.943 198.883 845.943 198.883C845.943 198.883 845.943 198.883 845.942 198.883C845.942 198.883 845.94 198.883 845.938 198.882C845.934 198.882 845.928 198.881 845.919 198.879C845.901 198.876 845.872 198.871 845.834 198.864C845.757 198.85 845.64 198.829 845.483 198.802C845.168 198.748 844.694 198.669 844.067 198.569C842.811 198.369 840.941 198.088 838.498 197.767C833.613 197.124 826.442 196.318 817.336 195.676C799.121 194.392 773.172 193.762 742.289 196.384L741.866 191.402C773.048 188.754 799.259 189.39 817.687 190.689C826.902 191.338 834.174 192.154 839.151 192.809C841.639 193.137 843.554 193.424 844.852 193.631C845.501 193.734 845.996 193.817 846.33 193.875C846.498 193.903 846.625 193.926 846.712 193.941C846.756 193.949 846.789 193.955 846.812 193.959C846.823 193.961 846.832 193.963 846.839 193.964C846.842 193.965 846.844 193.965 846.846 193.966C846.847 193.966 846.848 193.966 846.849 193.966C846.85 193.966 846.85 193.966 846.396 196.425ZM742.289 196.384C711.409 199.005 686.441 204.017 669.21 208.367C660.594 210.542 653.914 212.552 649.398 214.013C647.14 214.744 645.423 215.338 644.276 215.747C643.702 215.952 643.271 216.11 642.986 216.217C642.843 216.27 642.737 216.31 642.668 216.336C642.633 216.349 642.608 216.359 642.592 216.365C642.584 216.368 642.578 216.37 642.575 216.372C642.573 216.372 642.572 216.373 642.571 216.373C642.571 216.373 642.571 216.373 642.571 216.373C642.571 216.373 642.572 216.373 641.667 214.042C640.763 211.712 640.763 211.711 640.764 211.711C640.765 211.711 640.766 211.71 640.766 211.71C640.768 211.709 640.771 211.708 640.774 211.707C640.78 211.705 640.788 211.702 640.799 211.698C640.82 211.69 640.85 211.678 640.89 211.663C640.97 211.632 641.087 211.588 641.24 211.531C641.547 211.417 642 211.25 642.596 211.038C643.788 210.613 645.552 210.003 647.858 209.256C652.471 207.763 659.257 205.723 667.986 203.52C685.443 199.112 710.68 194.049 741.866 191.402L742.289 196.384Z" fill="white"/>
<path d="M316.999 266V250.727H319.872V253.153H320.031C320.31 252.331 320.8 251.685 321.503 251.214C322.212 250.737 323.014 250.499 323.909 250.499C324.095 250.499 324.313 250.505 324.565 250.518C324.824 250.532 325.026 250.548 325.172 250.568V253.412C325.053 253.379 324.84 253.342 324.536 253.303C324.231 253.256 323.926 253.233 323.621 253.233C322.918 253.233 322.292 253.382 321.741 253.68C321.198 253.972 320.767 254.38 320.449 254.903C320.131 255.42 319.972 256.01 319.972 256.673V266H316.999ZM333.78 266.308C332.275 266.308 330.98 265.987 329.892 265.344C328.812 264.694 327.977 263.783 327.387 262.609C326.803 261.429 326.512 260.047 326.512 258.463C326.512 256.899 326.803 255.52 327.387 254.327C327.977 253.134 328.799 252.202 329.853 251.533C330.913 250.863 332.153 250.528 333.571 250.528C334.433 250.528 335.268 250.671 336.077 250.956C336.886 251.241 337.612 251.688 338.255 252.298C338.898 252.908 339.405 253.7 339.776 254.675C340.147 255.643 340.333 256.819 340.333 258.205V259.259H328.192V257.031H337.419C337.419 256.249 337.26 255.556 336.942 254.953C336.624 254.343 336.176 253.863 335.6 253.511C335.03 253.16 334.36 252.984 333.591 252.984C332.756 252.984 332.027 253.19 331.404 253.601C330.787 254.005 330.31 254.536 329.972 255.192C329.641 255.841 329.475 256.547 329.475 257.31V259.05C329.475 260.071 329.654 260.939 330.012 261.655C330.376 262.371 330.883 262.918 331.533 263.295C332.183 263.667 332.942 263.852 333.81 263.852C334.373 263.852 334.887 263.773 335.351 263.614C335.815 263.448 336.216 263.203 336.554 262.878C336.892 262.553 337.151 262.152 337.33 261.675L340.144 262.182C339.918 263.01 339.514 263.736 338.931 264.359C338.354 264.976 337.628 265.456 336.753 265.801C335.885 266.139 334.894 266.308 333.78 266.308ZM343.631 271.727V250.727H346.535V253.203H346.783C346.956 252.885 347.204 252.517 347.529 252.099C347.854 251.682 348.305 251.317 348.881 251.006C349.458 250.688 350.22 250.528 351.168 250.528C352.401 250.528 353.502 250.84 354.469 251.463C355.437 252.086 356.196 252.984 356.746 254.158C357.303 255.331 357.582 256.743 357.582 258.393C357.582 260.044 357.307 261.459 356.756 262.639C356.206 263.812 355.451 264.717 354.489 265.354C353.528 265.983 352.431 266.298 351.198 266.298C350.27 266.298 349.511 266.143 348.921 265.831C348.338 265.519 347.88 265.155 347.549 264.737C347.218 264.32 346.962 263.948 346.783 263.624H346.604V271.727H343.631ZM346.545 258.364C346.545 259.437 346.701 260.379 347.012 261.188C347.324 261.996 347.774 262.629 348.364 263.087C348.954 263.537 349.677 263.763 350.532 263.763C351.42 263.763 352.163 263.527 352.759 263.057C353.356 262.58 353.807 261.933 354.112 261.118C354.423 260.303 354.579 259.384 354.579 258.364C354.579 257.356 354.426 256.451 354.121 255.649C353.823 254.847 353.372 254.214 352.769 253.75C352.173 253.286 351.427 253.054 350.532 253.054C349.67 253.054 348.941 253.276 348.344 253.72C347.754 254.164 347.307 254.784 347.002 255.58C346.697 256.375 346.545 257.303 346.545 258.364ZM363.886 245.636V266H360.913V245.636H363.886ZM372.33 266.338C371.362 266.338 370.487 266.159 369.705 265.801C368.923 265.437 368.303 264.91 367.846 264.22C367.395 263.531 367.169 262.686 367.169 261.685C367.169 260.823 367.335 260.114 367.667 259.557C367.998 259 368.445 258.559 369.009 258.234C369.572 257.91 370.202 257.664 370.898 257.499C371.594 257.333 372.303 257.207 373.026 257.121C373.941 257.015 374.683 256.929 375.253 256.862C375.823 256.789 376.238 256.673 376.496 256.514C376.755 256.355 376.884 256.097 376.884 255.739V255.669C376.884 254.801 376.639 254.128 376.148 253.651C375.664 253.173 374.942 252.935 373.98 252.935C372.98 252.935 372.191 253.157 371.614 253.601C371.044 254.038 370.65 254.526 370.431 255.062L367.637 254.426C367.968 253.498 368.452 252.749 369.088 252.179C369.731 251.602 370.471 251.185 371.306 250.926C372.141 250.661 373.019 250.528 373.941 250.528C374.551 250.528 375.197 250.601 375.88 250.747C376.569 250.886 377.212 251.145 377.809 251.523C378.412 251.901 378.906 252.441 379.29 253.143C379.675 253.839 379.867 254.744 379.867 255.858V266H376.963V263.912H376.844C376.652 264.296 376.364 264.674 375.979 265.045C375.595 265.417 375.101 265.725 374.498 265.97C373.894 266.215 373.172 266.338 372.33 266.338ZM372.976 263.952C373.798 263.952 374.501 263.789 375.084 263.464C375.674 263.14 376.122 262.715 376.426 262.192C376.738 261.661 376.894 261.095 376.894 260.491V258.523C376.788 258.629 376.582 258.728 376.277 258.821C375.979 258.907 375.638 258.983 375.253 259.05C374.869 259.109 374.494 259.166 374.13 259.219C373.765 259.265 373.46 259.305 373.215 259.338C372.638 259.411 372.111 259.534 371.634 259.706C371.163 259.878 370.785 260.127 370.5 260.452C370.222 260.77 370.083 261.194 370.083 261.724C370.083 262.46 370.355 263.017 370.898 263.395C371.442 263.766 372.134 263.952 372.976 263.952ZM390.26 266.308C388.782 266.308 387.509 265.973 386.442 265.304C385.381 264.628 384.566 263.696 383.996 262.51C383.426 261.323 383.141 259.964 383.141 258.433C383.141 256.882 383.432 255.513 384.016 254.327C384.599 253.134 385.421 252.202 386.482 251.533C387.542 250.863 388.792 250.528 390.23 250.528C391.39 250.528 392.424 250.744 393.332 251.175C394.241 251.599 394.973 252.196 395.53 252.964C396.093 253.733 396.428 254.632 396.534 255.659H393.641C393.482 254.943 393.117 254.327 392.547 253.81C391.983 253.293 391.228 253.034 390.28 253.034C389.451 253.034 388.725 253.253 388.102 253.69C387.486 254.121 387.005 254.738 386.661 255.54C386.316 256.335 386.143 257.277 386.143 258.364C386.143 259.477 386.313 260.438 386.651 261.247C386.989 262.056 387.466 262.682 388.082 263.126C388.705 263.571 389.438 263.793 390.28 263.793C390.843 263.793 391.354 263.69 391.811 263.484C392.275 263.272 392.663 262.971 392.974 262.58C393.293 262.188 393.515 261.718 393.641 261.168H396.534C396.428 262.155 396.107 263.037 395.57 263.812C395.033 264.588 394.313 265.198 393.412 265.642C392.517 266.086 391.466 266.308 390.26 266.308ZM406.296 266.308C404.791 266.308 403.495 265.987 402.408 265.344C401.328 264.694 400.492 263.783 399.902 262.609C399.319 261.429 399.027 260.047 399.027 258.463C399.027 256.899 399.319 255.52 399.902 254.327C400.492 253.134 401.314 252.202 402.368 251.533C403.429 250.863 404.668 250.528 406.087 250.528C406.949 250.528 407.784 250.671 408.593 250.956C409.401 251.241 410.127 251.688 410.77 252.298C411.413 252.908 411.92 253.7 412.292 254.675C412.663 255.643 412.848 256.819 412.848 258.205V259.259H400.708V257.031H409.935C409.935 256.249 409.776 255.556 409.458 254.953C409.14 254.343 408.692 253.863 408.115 253.511C407.545 253.16 406.876 252.984 406.107 252.984C405.272 252.984 404.542 253.19 403.919 253.601C403.303 254.005 402.826 254.536 402.488 255.192C402.156 255.841 401.99 256.547 401.99 257.31V259.05C401.99 260.071 402.169 260.939 402.527 261.655C402.892 262.371 403.399 262.918 404.049 263.295C404.698 263.667 405.457 263.852 406.326 263.852C406.889 263.852 407.403 263.773 407.867 263.614C408.331 263.448 408.732 263.203 409.07 262.878C409.408 262.553 409.667 262.152 409.846 261.675L412.659 262.182C412.434 263.01 412.03 263.736 411.446 264.359C410.87 264.976 410.144 265.456 409.269 265.801C408.4 266.139 407.409 266.308 406.296 266.308Z" fill="white"/>
<path d="M561.81 188.5V146H499.48C495.335 146 492 149.344 492 153.5V298.5C492 302.656 495.335 306 499.48 306H604.195C608.34 306 611.675 302.656 611.675 298.5V196H569.29C565.176 196 561.81 192.625 561.81 188.5ZM611.675 184.094V186H571.783V146H573.684C575.679 146 577.58 146.781 578.982 148.187L609.493 178.812C610.896 180.219 611.675 182.125 611.675 184.094Z" fill="#3B6C99"/>
<path d="M529.716 244L534.08 217.818H541.341L536.977 244H529.716ZM538.46 214.409C537.381 214.409 536.489 214.051 535.784 213.335C535.091 212.608 534.807 211.744 534.932 210.744C535.057 209.722 535.545 208.858 536.398 208.153C537.25 207.437 538.216 207.08 539.295 207.08C540.375 207.08 541.256 207.437 541.938 208.153C542.619 208.858 542.903 209.722 542.79 210.744C542.676 211.744 542.193 212.608 541.341 213.335C540.5 214.051 539.54 214.409 538.46 214.409ZM561.254 217.818L560.351 223.273H544.192L545.095 217.818H561.254ZM544.413 244L549.101 215.926C549.408 214.028 550.033 212.455 550.976 211.205C551.93 209.955 553.107 209.017 554.504 208.392C555.913 207.767 557.436 207.455 559.072 207.455C560.186 207.455 561.192 207.54 562.089 207.71C562.999 207.881 563.658 208.034 564.067 208.17L561.902 213.625C561.629 213.534 561.294 213.449 560.896 213.369C560.499 213.29 560.078 213.25 559.635 213.25C558.578 213.25 557.8 213.5 557.3 214C556.811 214.489 556.482 215.176 556.311 216.062L551.658 244H544.413Z" fill="#101010"/>
<path d="M534.368 265.364L527.247 285H523.156L516.023 265.364H520.126L525.099 280.474H525.304L530.264 265.364H534.368ZM543.112 285.435C541.868 285.435 540.743 285.205 539.737 284.744C538.732 284.276 537.935 283.598 537.347 282.712C536.767 281.825 536.477 280.739 536.477 279.452C536.477 278.344 536.69 277.432 537.116 276.716C537.543 276 538.118 275.433 538.842 275.016C539.567 274.598 540.376 274.283 541.271 274.07C542.166 273.857 543.078 273.695 544.007 273.584C545.183 273.447 546.138 273.337 546.871 273.251C547.604 273.158 548.136 273.009 548.469 272.804C548.801 272.599 548.967 272.267 548.967 271.807V271.717C548.967 270.601 548.652 269.736 548.021 269.122C547.399 268.509 546.47 268.202 545.234 268.202C543.947 268.202 542.933 268.487 542.192 269.058C541.459 269.621 540.952 270.247 540.67 270.938L537.078 270.119C537.504 268.926 538.126 267.963 538.945 267.23C539.771 266.489 540.722 265.952 541.795 265.619C542.869 265.278 543.999 265.108 545.183 265.108C545.967 265.108 546.798 265.202 547.676 265.389C548.563 265.568 549.389 265.901 550.156 266.386C550.932 266.872 551.567 267.567 552.061 268.47C552.555 269.365 552.803 270.528 552.803 271.96V285H549.07V282.315H548.916C548.669 282.81 548.298 283.295 547.804 283.773C547.31 284.25 546.675 284.646 545.899 284.962C545.124 285.277 544.195 285.435 543.112 285.435ZM543.943 282.366C545 282.366 545.903 282.158 546.653 281.74C547.412 281.322 547.987 280.777 548.379 280.104C548.78 279.422 548.98 278.693 548.98 277.918V275.386C548.844 275.523 548.58 275.651 548.188 275.77C547.804 275.881 547.365 275.979 546.871 276.064C546.376 276.141 545.895 276.213 545.426 276.281C544.957 276.341 544.565 276.392 544.25 276.435C543.509 276.528 542.831 276.686 542.217 276.908C541.612 277.129 541.126 277.449 540.76 277.866C540.402 278.276 540.223 278.821 540.223 279.503C540.223 280.449 540.572 281.165 541.271 281.651C541.97 282.128 542.861 282.366 543.943 282.366ZM557.894 285V265.364H561.588V268.483H561.793C562.151 267.426 562.782 266.595 563.685 265.99C564.597 265.376 565.628 265.07 566.779 265.07C567.017 265.07 567.299 265.078 567.623 265.095C567.955 265.112 568.215 265.134 568.402 265.159V268.815C568.249 268.773 567.976 268.726 567.584 268.675C567.192 268.615 566.8 268.585 566.408 268.585C565.505 268.585 564.699 268.777 563.992 269.161C563.293 269.536 562.739 270.06 562.33 270.733C561.921 271.398 561.716 272.156 561.716 273.009V285H557.894ZM581.238 285V265.364H585.06V285H581.238ZM583.168 262.334C582.503 262.334 581.932 262.112 581.455 261.669C580.986 261.217 580.752 260.68 580.752 260.058C580.752 259.428 580.986 258.891 581.455 258.447C581.932 257.996 582.503 257.77 583.168 257.77C583.833 257.77 584.4 257.996 584.868 258.447C585.346 258.891 585.584 259.428 585.584 260.058C585.584 260.68 585.346 261.217 584.868 261.669C584.4 262.112 583.833 262.334 583.168 262.334ZM595.175 281.42L594.984 282.814C594.856 283.837 594.638 284.902 594.332 286.01C594.033 287.126 593.722 288.162 593.398 289.116C593.083 290.071 592.823 290.83 592.619 291.392H589.908C590.019 290.864 590.173 290.148 590.369 289.244C590.565 288.349 590.756 287.348 590.944 286.24C591.131 285.132 591.272 284.003 591.366 282.852L591.494 281.42H595.175ZM593.181 270.95C592.482 270.95 591.881 270.699 591.379 270.196C590.876 269.693 590.624 269.092 590.624 268.393C590.624 267.695 590.876 267.098 591.379 266.604C591.881 266.101 592.482 265.849 593.181 265.849C593.88 265.849 594.481 266.101 594.984 266.604C595.487 267.098 595.738 267.695 595.738 268.393C595.738 268.862 595.619 269.293 595.38 269.685C595.15 270.068 594.843 270.375 594.46 270.605C594.076 270.835 593.65 270.95 593.181 270.95Z" fill="#101010"/>
<path d="M514.409 244L518.636 220.727H520.909L516.682 244H514.409ZM503.932 237.545L504.341 235.273H521.705L521.295 237.545H503.932ZM506.227 244L510.455 220.727H512.727L508.5 244H506.227ZM505.432 229.455L505.841 227.182H523.205L522.795 229.455H505.432Z" fill="#101010"/>
<path d="M744.011 156.727V180H739.091V161.398H738.955L733.625 164.739V160.375L739.386 156.727H744.011ZM751.168 180.295C750.418 180.295 749.774 180.03 749.236 179.5C748.705 178.962 748.44 178.318 748.44 177.568C748.44 176.826 748.705 176.189 749.236 175.659C749.774 175.129 750.418 174.864 751.168 174.864C751.895 174.864 752.531 175.129 753.077 175.659C753.622 176.189 753.895 176.826 753.895 177.568C753.895 178.068 753.766 178.527 753.509 178.943C753.259 179.352 752.929 179.682 752.52 179.932C752.111 180.174 751.66 180.295 751.168 180.295Z" fill="white"/>
<path d="M341.886 206V202.455L350.17 194.784C350.875 194.102 351.466 193.489 351.943 192.943C352.428 192.398 352.795 191.864 353.045 191.341C353.295 190.811 353.42 190.239 353.42 189.625C353.42 188.943 353.265 188.356 352.955 187.864C352.644 187.364 352.22 186.981 351.682 186.716C351.144 186.443 350.534 186.307 349.852 186.307C349.14 186.307 348.519 186.451 347.989 186.739C347.458 187.027 347.049 187.439 346.761 187.977C346.473 188.515 346.33 189.155 346.33 189.898H341.659C341.659 188.375 342.004 187.053 342.693 185.932C343.383 184.811 344.348 183.943 345.591 183.33C346.833 182.716 348.265 182.409 349.886 182.409C351.553 182.409 353.004 182.705 354.239 183.295C355.481 183.879 356.447 184.689 357.136 185.727C357.826 186.765 358.17 187.955 358.17 189.295C358.17 190.174 357.996 191.042 357.648 191.898C357.307 192.754 356.697 193.705 355.818 194.75C354.939 195.788 353.701 197.034 352.102 198.489L348.705 201.818V201.977H358.477V206H341.886ZM364.918 206.295C364.168 206.295 363.524 206.03 362.986 205.5C362.455 204.962 362.19 204.318 362.19 203.568C362.19 202.826 362.455 202.189 362.986 201.659C363.524 201.129 364.168 200.864 364.918 200.864C365.645 200.864 366.281 201.129 366.827 201.659C367.372 202.189 367.645 202.826 367.645 203.568C367.645 204.068 367.516 204.527 367.259 204.943C367.009 205.352 366.679 205.682 366.27 205.932C365.861 206.174 365.41 206.295 364.918 206.295Z" fill="white"/>
<rect x="26" y="26" width="314" height="78" rx="16" fill="#393939"/>
<path d="M66.2045 69.1136L51.1136 76.4318V72.9545L62.25 67.8864L62.1364 68.0795V67.5909L62.25 67.7955L51.1136 62.7159V59.25L66.2045 66.5682V69.1136ZM80.0653 83.5455V59.5455H83.3835V62.375H83.6676C83.8646 62.0114 84.1487 61.5909 84.5199 61.1136C84.8911 60.6364 85.4063 60.2197 86.0653 59.8636C86.7244 59.5 87.5956 59.3182 88.679 59.3182C90.0881 59.3182 91.3456 59.6742 92.4517 60.3864C93.5578 61.0985 94.4252 62.125 95.054 63.4659C95.6903 64.8068 96.0085 66.4205 96.0085 68.3068C96.0085 70.1932 95.6941 71.8106 95.0653 73.1591C94.4366 74.5 93.5729 75.5341 92.4744 76.2614C91.3759 76.9811 90.1222 77.3409 88.7131 77.3409C87.6525 77.3409 86.785 77.1629 86.1108 76.8068C85.4441 76.4508 84.9214 76.0341 84.5426 75.5568C84.1638 75.0795 83.8722 74.6553 83.6676 74.2841H83.4631V83.5455H80.0653ZM83.3949 68.2727C83.3949 69.5 83.5729 70.5758 83.929 71.5C84.285 72.4242 84.8002 73.1477 85.4744 73.6705C86.1487 74.1856 86.9744 74.4432 87.9517 74.4432C88.9669 74.4432 89.8153 74.1742 90.4972 73.6364C91.179 73.0909 91.6941 72.3523 92.0426 71.4205C92.3987 70.4886 92.5767 69.4394 92.5767 68.2727C92.5767 67.1212 92.4025 66.0871 92.054 65.1705C91.7131 64.2538 91.1979 63.5303 90.5085 63C89.8267 62.4697 88.9744 62.2045 87.9517 62.2045C86.9669 62.2045 86.1335 62.4583 85.4517 62.9659C84.7775 63.4735 84.2661 64.1818 83.9176 65.0909C83.5691 66 83.3949 67.0606 83.3949 68.2727ZM99.8153 77V59.5455H103.099V62.3182H103.281C103.599 61.3788 104.16 60.6402 104.963 60.1023C105.774 59.5568 106.69 59.2841 107.713 59.2841C107.925 59.2841 108.175 59.2917 108.463 59.3068C108.759 59.322 108.99 59.3409 109.156 59.3636V62.6136C109.02 62.5758 108.777 62.5341 108.429 62.4886C108.08 62.4356 107.732 62.4091 107.384 62.4091C106.58 62.4091 105.865 62.5795 105.236 62.9205C104.615 63.2538 104.122 63.7197 103.759 64.3182C103.395 64.9091 103.213 65.5833 103.213 66.3409V77H99.8153ZM118.994 77.3523C117.275 77.3523 115.794 76.9848 114.551 76.25C113.316 75.5076 112.362 74.4659 111.688 73.125C111.021 71.7765 110.688 70.197 110.688 68.3864C110.688 66.5985 111.021 65.0227 111.688 63.6591C112.362 62.2955 113.301 61.2311 114.506 60.4659C115.718 59.7008 117.134 59.3182 118.756 59.3182C119.741 59.3182 120.695 59.4811 121.619 59.8068C122.544 60.1326 123.373 60.6439 124.108 61.3409C124.843 62.0379 125.422 62.9432 125.847 64.0568C126.271 65.1629 126.483 66.5076 126.483 68.0909V69.2955H112.608V66.75H123.153C123.153 65.8561 122.972 65.0644 122.608 64.375C122.244 63.678 121.733 63.1288 121.074 62.7273C120.422 62.3258 119.657 62.125 118.778 62.125C117.824 62.125 116.991 62.3598 116.278 62.8295C115.574 63.2917 115.028 63.8977 114.642 64.6477C114.263 65.3902 114.074 66.197 114.074 67.0682V69.0568C114.074 70.2235 114.278 71.2159 114.688 72.0341C115.104 72.8523 115.684 73.4773 116.426 73.9091C117.169 74.3333 118.036 74.5455 119.028 74.5455C119.672 74.5455 120.259 74.4545 120.79 74.2727C121.32 74.0833 121.778 73.803 122.165 73.4318C122.551 73.0606 122.847 72.6023 123.051 72.0568L126.267 72.6364C126.009 73.5833 125.547 74.4129 124.881 75.125C124.222 75.8295 123.392 76.3788 122.392 76.7727C121.4 77.1591 120.267 77.3523 118.994 77.3523ZM130.526 77V53.7273H133.923V62.375H134.128C134.325 62.0114 134.609 61.5909 134.98 61.1136C135.351 60.6364 135.866 60.2197 136.526 59.8636C137.185 59.5 138.056 59.3182 139.139 59.3182C140.548 59.3182 141.806 59.6742 142.912 60.3864C144.018 61.0985 144.885 62.125 145.514 63.4659C146.151 64.8068 146.469 66.4205 146.469 68.3068C146.469 70.1932 146.154 71.8106 145.526 73.1591C144.897 74.5 144.033 75.5341 142.935 76.2614C141.836 76.9811 140.582 77.3409 139.173 77.3409C138.113 77.3409 137.245 77.1629 136.571 76.8068C135.904 76.4508 135.382 76.0341 135.003 75.5568C134.624 75.0795 134.332 74.6553 134.128 74.2841H133.844V77H130.526ZM133.855 68.2727C133.855 69.5 134.033 70.5758 134.389 71.5C134.745 72.4242 135.26 73.1477 135.935 73.6705C136.609 74.1856 137.435 74.4432 138.412 74.4432C139.427 74.4432 140.276 74.1742 140.957 73.6364C141.639 73.0909 142.154 72.3523 142.503 71.4205C142.859 70.4886 143.037 69.4394 143.037 68.2727C143.037 67.1212 142.863 66.0871 142.514 65.1705C142.173 64.2538 141.658 63.5303 140.969 63C140.287 62.4697 139.435 62.2045 138.412 62.2045C137.427 62.2045 136.594 62.4583 135.912 62.9659C135.238 63.4735 134.726 64.1818 134.378 65.0909C134.029 66 133.855 67.0606 133.855 68.2727ZM161.341 69.7614V59.5455H164.75V77H161.409V73.9773H161.227C160.826 74.9091 160.182 75.6856 159.295 76.3068C158.417 76.9205 157.322 77.2273 156.011 77.2273C154.89 77.2273 153.898 76.9811 153.034 76.4886C152.178 75.9886 151.504 75.25 151.011 74.2727C150.527 73.2955 150.284 72.0871 150.284 70.6477V59.5455H153.682V70.2386C153.682 71.428 154.011 72.375 154.67 73.0795C155.33 73.7841 156.186 74.1364 157.239 74.1364C157.875 74.1364 158.508 73.9773 159.136 73.6591C159.773 73.3409 160.299 72.8598 160.716 72.2159C161.14 71.572 161.348 70.7538 161.341 69.7614ZM169.315 77V59.5455H172.713V77H169.315ZM171.031 56.8523C170.44 56.8523 169.933 56.6553 169.509 56.2614C169.092 55.8598 168.884 55.3826 168.884 54.8295C168.884 54.2689 169.092 53.7917 169.509 53.3977C169.933 52.9962 170.44 52.7955 171.031 52.7955C171.622 52.7955 172.126 52.9962 172.543 53.3977C172.967 53.7917 173.179 54.2689 173.179 54.8295C173.179 55.3826 172.967 55.8598 172.543 56.2614C172.126 56.6553 171.622 56.8523 171.031 56.8523ZM180.682 53.7273V77H177.284V53.7273H180.682ZM191.787 77.3409C190.378 77.3409 189.12 76.9811 188.014 76.2614C186.916 75.5341 186.052 74.5 185.423 73.1591C184.802 71.8106 184.491 70.1932 184.491 68.3068C184.491 66.4205 184.806 64.8068 185.435 63.4659C186.071 62.125 186.942 61.0985 188.048 60.3864C189.154 59.6742 190.408 59.3182 191.81 59.3182C192.893 59.3182 193.764 59.5 194.423 59.8636C195.09 60.2197 195.605 60.6364 195.969 61.1136C196.34 61.5909 196.628 62.0114 196.832 62.375H197.037V53.7273H200.435V77H197.116V74.2841H196.832C196.628 74.6553 196.332 75.0795 195.946 75.5568C195.567 76.0341 195.045 76.4508 194.378 76.8068C193.711 77.1629 192.848 77.3409 191.787 77.3409ZM192.537 74.4432C193.514 74.4432 194.34 74.1856 195.014 73.6705C195.696 73.1477 196.211 72.4242 196.56 71.5C196.916 70.5758 197.094 69.5 197.094 68.2727C197.094 67.0606 196.92 66 196.571 65.0909C196.223 64.1818 195.711 63.4735 195.037 62.9659C194.363 62.4583 193.529 62.2045 192.537 62.2045C191.514 62.2045 190.662 62.4697 189.98 63C189.298 63.5303 188.783 64.2538 188.435 65.1705C188.094 66.0871 187.923 67.1212 187.923 68.2727C187.923 69.4394 188.098 70.4886 188.446 71.4205C188.795 72.3523 189.31 73.0909 189.991 73.6364C190.681 74.1742 191.529 74.4432 192.537 74.4432ZM213.753 77V59.5455H217.037V62.3182H217.219C217.537 61.3788 218.098 60.6402 218.901 60.1023C219.711 59.5568 220.628 59.2841 221.651 59.2841C221.863 59.2841 222.113 59.2917 222.401 59.3068C222.696 59.322 222.927 59.3409 223.094 59.3636V62.6136C222.957 62.5758 222.715 62.5341 222.366 62.4886C222.018 62.4356 221.67 62.4091 221.321 62.4091C220.518 62.4091 219.802 62.5795 219.173 62.9205C218.552 63.2538 218.06 63.7197 217.696 64.3182C217.332 64.9091 217.151 65.5833 217.151 66.3409V77H213.753ZM232.932 77.3523C231.212 77.3523 229.731 76.9848 228.489 76.25C227.254 75.5076 226.299 74.4659 225.625 73.125C224.958 71.7765 224.625 70.197 224.625 68.3864C224.625 66.5985 224.958 65.0227 225.625 63.6591C226.299 62.2955 227.239 61.2311 228.443 60.4659C229.655 59.7008 231.072 59.3182 232.693 59.3182C233.678 59.3182 234.633 59.4811 235.557 59.8068C236.481 60.1326 237.311 60.6439 238.045 61.3409C238.78 62.0379 239.36 62.9432 239.784 64.0568C240.208 65.1629 240.42 66.5076 240.42 68.0909V69.2955H226.545V66.75H237.091C237.091 65.8561 236.909 65.0644 236.545 64.375C236.182 63.678 235.67 63.1288 235.011 62.7273C234.36 62.3258 233.595 62.125 232.716 62.125C231.761 62.125 230.928 62.3598 230.216 62.8295C229.511 63.2917 228.966 63.8977 228.58 64.6477C228.201 65.3902 228.011 66.197 228.011 67.0682V69.0568C228.011 70.2235 228.216 71.2159 228.625 72.0341C229.042 72.8523 229.621 73.4773 230.364 73.9091C231.106 74.3333 231.973 74.5455 232.966 74.5455C233.61 74.5455 234.197 74.4545 234.727 74.2727C235.258 74.0833 235.716 73.803 236.102 73.4318C236.489 73.0606 236.784 72.6023 236.989 72.0568L240.205 72.6364C239.947 73.5833 239.485 74.4129 238.818 75.125C238.159 75.8295 237.33 76.3788 236.33 76.7727C235.337 77.1591 234.205 77.3523 232.932 77.3523ZM257.27 63.8068L254.19 64.3523C254.062 63.9583 253.857 63.5833 253.577 63.2273C253.304 62.8712 252.933 62.5795 252.463 62.3523C251.993 62.125 251.406 62.0114 250.702 62.0114C249.74 62.0114 248.937 62.2273 248.293 62.6591C247.649 63.0833 247.327 63.6326 247.327 64.3068C247.327 64.8902 247.543 65.3598 247.974 65.7159C248.406 66.072 249.103 66.3636 250.065 66.5909L252.838 67.2273C254.444 67.5985 255.641 68.1705 256.429 68.9432C257.217 69.7159 257.611 70.7197 257.611 71.9545C257.611 73 257.308 73.9318 256.702 74.75C256.103 75.5606 255.266 76.197 254.19 76.6591C253.122 77.1212 251.884 77.3523 250.474 77.3523C248.52 77.3523 246.925 76.9356 245.69 76.1023C244.455 75.2614 243.698 74.0682 243.418 72.5227L246.702 72.0227C246.906 72.8788 247.327 73.5265 247.963 73.9659C248.599 74.3977 249.429 74.6136 250.452 74.6136C251.565 74.6136 252.455 74.3826 253.122 73.9205C253.789 73.4508 254.122 72.8788 254.122 72.2045C254.122 71.6591 253.918 71.2008 253.509 70.8295C253.107 70.4583 252.49 70.178 251.656 69.9886L248.702 69.3409C247.073 68.9697 245.868 68.3788 245.088 67.5682C244.315 66.7576 243.929 65.7311 243.929 64.4886C243.929 63.4583 244.217 62.5568 244.793 61.7841C245.368 61.0114 246.164 60.4091 247.179 59.9773C248.194 59.5379 249.357 59.3182 250.668 59.3182C252.554 59.3182 254.039 59.7273 255.122 60.5455C256.205 61.3561 256.921 62.4432 257.27 63.8068ZM269.494 59.5455V62.2727H259.96V59.5455H269.494ZM262.517 55.3636H265.915V71.875C265.915 72.5341 266.013 73.0303 266.21 73.3636C266.407 73.6894 266.661 73.9129 266.972 74.0341C267.29 74.1477 267.634 74.2045 268.006 74.2045C268.278 74.2045 268.517 74.1856 268.722 74.1477C268.926 74.1098 269.085 74.0795 269.199 74.0568L269.812 76.8636C269.616 76.9394 269.335 77.0152 268.972 77.0909C268.608 77.1742 268.153 77.2197 267.608 77.2273C266.714 77.2424 265.881 77.0833 265.108 76.75C264.335 76.4167 263.71 75.9015 263.233 75.2045C262.756 74.5076 262.517 73.6326 262.517 72.5795V55.3636ZM280.418 77.3523C278.781 77.3523 277.353 76.9773 276.134 76.2273C274.914 75.4773 273.967 74.428 273.293 73.0795C272.618 71.7311 272.281 70.1553 272.281 68.3523C272.281 66.5417 272.618 64.9583 273.293 63.6023C273.967 62.2462 274.914 61.1932 276.134 60.4432C277.353 59.6932 278.781 59.3182 280.418 59.3182C282.054 59.3182 283.482 59.6932 284.702 60.4432C285.921 61.1932 286.868 62.2462 287.543 63.6023C288.217 64.9583 288.554 66.5417 288.554 68.3523C288.554 70.1553 288.217 71.7311 287.543 73.0795C286.868 74.428 285.921 75.4773 284.702 76.2273C283.482 76.9773 282.054 77.3523 280.418 77.3523ZM280.429 74.5C281.49 74.5 282.368 74.2197 283.065 73.6591C283.762 73.0985 284.277 72.3523 284.611 71.4205C284.952 70.4886 285.122 69.4621 285.122 68.3409C285.122 67.2273 284.952 66.2045 284.611 65.2727C284.277 64.3333 283.762 63.5795 283.065 63.0114C282.368 62.4432 281.49 62.1591 280.429 62.1591C279.361 62.1591 278.474 62.4432 277.77 63.0114C277.073 63.5795 276.554 64.3333 276.213 65.2727C275.88 66.2045 275.713 67.2273 275.713 68.3409C275.713 69.4621 275.88 70.4886 276.213 71.4205C276.554 72.3523 277.073 73.0985 277.77 73.6591C278.474 74.2197 279.361 74.5 280.429 74.5ZM292.347 77V59.5455H295.631V62.3182H295.812C296.131 61.3788 296.691 60.6402 297.494 60.1023C298.305 59.5568 299.222 59.2841 300.244 59.2841C300.456 59.2841 300.706 59.2917 300.994 59.3068C301.29 59.322 301.521 59.3409 301.688 59.3636V62.6136C301.551 62.5758 301.309 62.5341 300.96 62.4886C300.612 62.4356 300.263 62.4091 299.915 62.4091C299.112 62.4091 298.396 62.5795 297.767 62.9205C297.146 63.2538 296.653 63.7197 296.29 64.3182C295.926 64.9091 295.744 65.5833 295.744 66.3409V77H292.347ZM311.526 77.3523C309.806 77.3523 308.325 76.9848 307.082 76.25C305.848 75.5076 304.893 74.4659 304.219 73.125C303.552 71.7765 303.219 70.197 303.219 68.3864C303.219 66.5985 303.552 65.0227 304.219 63.6591C304.893 62.2955 305.832 61.2311 307.037 60.4659C308.249 59.7008 309.666 59.3182 311.287 59.3182C312.272 59.3182 313.226 59.4811 314.151 59.8068C315.075 60.1326 315.904 60.6439 316.639 61.3409C317.374 62.0379 317.954 62.9432 318.378 64.0568C318.802 65.1629 319.014 66.5076 319.014 68.0909V69.2955H305.139V66.75H315.685C315.685 65.8561 315.503 65.0644 315.139 64.375C314.776 63.678 314.264 63.1288 313.605 62.7273C312.954 62.3258 312.188 62.125 311.31 62.125C310.355 62.125 309.522 62.3598 308.81 62.8295C308.105 63.2917 307.56 63.8977 307.173 64.6477C306.795 65.3902 306.605 66.197 306.605 67.0682V69.0568C306.605 70.2235 306.81 71.2159 307.219 72.0341C307.635 72.8523 308.215 73.4773 308.957 73.9091C309.7 74.3333 310.567 74.5455 311.56 74.5455C312.204 74.5455 312.791 74.4545 313.321 74.2727C313.851 74.0833 314.31 73.803 314.696 73.4318C315.082 73.0606 315.378 72.6023 315.582 72.0568L318.798 72.6364C318.541 73.5833 318.079 74.4129 317.412 75.125C316.753 75.8295 315.923 76.3788 314.923 76.7727C313.931 77.1591 312.798 77.3523 311.526 77.3523Z" fill="white"/>
</svg>
